<?xml version="1.0" encoding="utf-8"?>
<!-- Generator: Adobe Illustrator 16.0.0, SVG Export Plug-In . SVG Version: 6.00 Build 0)  -->
<!DOCTYPE svg PUBLIC "-//W3C//DTD SVG 1.1//EN" "http://www.w3.org/Graphics/SVG/1.1/DTD/svg11.dtd">
<svg version="1.1" id="Layer_1" xmlns="http://www.w3.org/2000/svg" xmlns:xlink="http://www.w3.org/1999/xlink" x="0px" y="0px"
	 width="130px" height="130px" viewBox="0 0 130 130" enable-background="new 0 0 130 130" xml:space="preserve">
<g>
	<g>
		<g>
			<g>
				<g>
					<polygon fill="#5F7777" points="63.749,80.5 40.595,93.867 40.595,57.952 53.867,50.789 63.749,52.675 					"/>
					<polygon fill="#84A4A5" points="40.595,57.952 5.45,45.764 5.45,73.59 40.595,93.867 					"/>
					<polygon fill="#637C7C" points="63.749,78.492 40.595,91.861 40.595,64.037 53.867,48.781 63.749,50.667 					"/>
					<polyline fill="#5F7777" points="40.595,91.861 40.595,64.037 53.867,48.781 63.749,50.667 					"/>
					<polyline fill="#4E6363" points="40.595,64.037 53.867,48.781 63.749,50.667 					"/>
					<polygon fill="#8EAFAF" points="40.595,64.037 5.45,43.757 5.45,71.582 40.595,91.861 					"/>
					<polyline fill="#84A4A5" points="40.595,91.861 40.595,64.037 5.45,43.757 					"/>
					<polygon fill="#094572" points="53.867,48.781 18.681,28.48 5.45,43.757 40.595,64.037 					"/>
					<polyline fill="#053A5B" points="40.595,64.037 53.867,48.781 18.681,28.48 					"/>
					<polygon fill="#042633" points="18.681,28.48 28.605,30.39 63.749,50.667 53.867,48.781 					"/>
					<polyline fill="#092838" points="63.749,50.667 53.867,48.781 18.681,28.48 					"/>
				</g>
			</g>
		</g>
		<g>
			<g>
				<g>
					<g>
						<g>
							<g>
								<polygon fill="#075399" points="7.38,48.051 9.493,49.271 9.493,51.71 7.38,50.49 								"/>
								<polyline fill="#087FBA" points="9.493,49.271 9.493,51.71 7.38,50.49 								"/>
								<polygon fill="#73E5FF" points="7.724,50.3 9.493,51.322 9.493,49.271 7.724,48.25 								"/>
								<polyline fill="#29CDFF" points="9.493,51.322 9.493,49.271 7.724,48.25 								"/>
								<polygon fill="#087FBA" points="7.604,49.136 7.604,49.429 9.493,50.521 9.493,50.224 								"/>
							</g>
						</g>
					</g>
				</g>
				<g>
					<g>
						<g>
							<g>
								<polygon fill="#075399" points="11.462,50.396 13.575,51.615 13.575,54.054 11.462,52.833 								"/>
								<polyline fill="#087FBA" points="13.575,51.615 13.575,54.054 11.462,52.833 								"/>
								<polygon fill="#73E5FF" points="11.806,52.644 13.575,53.666 13.575,51.615 11.806,50.593 								"/>
								<polyline fill="#29CDFF" points="13.575,53.666 13.575,51.615 11.806,50.593 								"/>
								<polygon fill="#087FBA" points="11.686,51.478 11.686,51.773 13.575,52.865 13.575,52.569 								"/>
							</g>
						</g>
					</g>
				</g>
				<g>
					<g>
						<g>
							<g>
								<polygon fill="#075399" points="15.544,52.74 17.657,53.958 17.657,56.398 15.544,55.178 								"/>
								<polyline fill="#087FBA" points="17.657,53.958 17.657,56.398 15.544,55.178 								"/>
								<polygon fill="#73E5FF" points="15.888,54.988 17.657,56.008 17.657,53.958 15.888,52.937 								"/>
								<polyline fill="#29CDFF" points="17.657,56.008 17.657,53.958 15.888,52.937 								"/>
								<polygon fill="#087FBA" points="15.768,53.822 15.768,54.117 17.657,55.207 17.657,54.912 								"/>
							</g>
						</g>
					</g>
				</g>
				<g>
					<g>
						<g>
							<g>
								<polygon fill="#075399" points="19.626,55.083 21.739,56.302 21.739,58.742 19.626,57.521 								"/>
								<polyline fill="#087FBA" points="21.739,56.302 21.739,58.742 19.626,57.521 								"/>
								<polygon fill="#73E5FF" points="19.97,57.332 21.739,58.353 21.739,56.302 19.97,55.281 								"/>
								<polyline fill="#29CDFF" points="21.739,58.353 21.739,56.302 19.97,55.281 								"/>
								<polygon fill="#087FBA" points="19.849,56.166 19.849,56.46 21.739,57.55 21.739,57.255 								"/>
							</g>
						</g>
					</g>
				</g>
				<g>
					<g>
						<g>
							<g>
								<polygon fill="#075399" points="23.707,57.426 25.82,58.646 25.82,61.085 23.707,59.865 								"/>
								<polyline fill="#087FBA" points="25.82,58.646 25.82,61.085 23.707,59.865 								"/>
								<polygon fill="#73E5FF" points="24.051,59.674 25.82,60.697 25.82,58.646 24.051,57.625 								"/>
								<polyline fill="#29CDFF" points="25.82,60.697 25.82,58.646 24.051,57.625 								"/>
								<polygon fill="#087FBA" points="23.931,58.509 23.931,58.804 25.82,59.896 25.82,59.599 								"/>
							</g>
						</g>
					</g>
				</g>
				<g>
					<g>
						<g>
							<g>
								<polygon fill="#075399" points="27.788,59.771 29.901,60.989 29.901,63.429 27.788,62.208 								"/>
								<polyline fill="#087FBA" points="29.901,60.989 29.901,63.429 27.788,62.208 								"/>
								<polygon fill="#73E5FF" points="28.132,62.017 29.901,63.04 29.901,60.989 28.132,59.969 								"/>
								<polyline fill="#29CDFF" points="29.901,63.04 29.901,60.989 28.132,59.969 								"/>
								<polygon fill="#087FBA" points="28.013,60.853 28.013,61.148 29.901,62.238 29.901,61.944 								"/>
							</g>
						</g>
					</g>
				</g>
				<g>
					<g>
						<g>
							<g>
								<polygon fill="#075399" points="31.871,62.113 33.983,63.333 33.983,65.773 31.871,64.552 								"/>
								<polyline fill="#087FBA" points="33.983,63.333 33.983,65.773 31.871,64.552 								"/>
								<polygon fill="#73E5FF" points="32.214,64.363 33.983,65.383 33.983,63.333 32.214,62.312 								"/>
								<polyline fill="#29CDFF" points="33.983,65.383 33.983,63.333 32.214,62.312 								"/>
								<polygon fill="#087FBA" points="32.094,63.197 32.094,63.49 33.983,64.583 33.983,64.287 								"/>
							</g>
						</g>
					</g>
				</g>
				<g>
					<g>
						<g>
							<g>
								<polygon fill="#075399" points="35.952,64.458 38.065,65.677 38.065,68.116 35.952,66.896 								"/>
								<polyline fill="#087FBA" points="38.065,65.677 38.065,68.116 35.952,66.896 								"/>
								<polygon fill="#73E5FF" points="36.296,66.706 38.065,67.728 38.065,65.677 36.296,64.655 								"/>
								<polyline fill="#29CDFF" points="38.065,67.728 38.065,65.677 36.296,64.655 								"/>
								<polygon fill="#087FBA" points="36.176,65.541 36.176,65.833 38.065,66.925 38.065,66.63 								"/>
							</g>
						</g>
					</g>
				</g>
			</g>
			<g>
				<g>
					<g>
						<g>
							<g>
								<polygon fill="#075399" points="7.38,52.74 9.493,53.958 9.493,56.399 7.38,55.178 								"/>
								<polyline fill="#087FBA" points="9.493,53.958 9.493,56.399 7.38,55.178 								"/>
								<polygon fill="#73E5FF" points="7.724,54.989 9.493,56.011 9.493,53.958 7.724,52.939 								"/>
								<polyline fill="#29CDFF" points="9.493,56.011 9.493,53.958 7.724,52.939 								"/>
								<polygon fill="#087FBA" points="7.604,53.824 7.604,54.117 9.493,55.208 9.493,54.913 								"/>
							</g>
						</g>
					</g>
				</g>
				<g>
					<g>
						<g>
							<g>
								<polygon fill="#075399" points="11.462,55.084 13.575,56.302 13.575,58.742 11.462,57.521 								"/>
								<polyline fill="#087FBA" points="13.575,56.302 13.575,58.742 11.462,57.521 								"/>
								<polygon fill="#73E5FF" points="11.806,57.332 13.575,58.353 13.575,56.302 11.806,55.283 								"/>
								<polyline fill="#29CDFF" points="13.575,58.353 13.575,56.302 11.806,55.283 								"/>
								<polygon fill="#087FBA" points="11.686,56.167 11.686,56.461 13.575,57.552 13.575,57.257 								"/>
							</g>
						</g>
					</g>
				</g>
				<g>
					<g>
						<g>
							<g>
								<polygon fill="#075399" points="15.544,57.427 17.657,58.648 17.657,61.085 15.544,59.867 								"/>
								<polyline fill="#087FBA" points="17.657,58.648 17.657,61.085 15.544,59.867 								"/>
								<polygon fill="#73E5FF" points="15.888,59.675 17.657,60.697 17.657,58.648 15.888,57.625 								"/>
								<polyline fill="#29CDFF" points="17.657,60.697 17.657,58.648 15.888,57.625 								"/>
								<polygon fill="#087FBA" points="15.768,58.509 15.768,58.804 17.657,59.896 17.657,59.599 								"/>
							</g>
						</g>
					</g>
				</g>
				<g>
					<g>
						<g>
							<g>
								<polygon fill="#075399" points="19.626,59.771 21.739,60.99 21.739,63.429 19.626,62.209 								"/>
								<polyline fill="#087FBA" points="21.739,60.99 21.739,63.429 19.626,62.209 								"/>
								<polygon fill="#73E5FF" points="19.97,62.019 21.739,63.041 21.739,60.99 19.97,59.969 								"/>
								<polyline fill="#29CDFF" points="21.739,63.041 21.739,60.99 19.97,59.969 								"/>
								<polygon fill="#087FBA" points="19.849,60.855 19.849,61.148 21.739,62.238 21.739,61.944 								"/>
							</g>
						</g>
					</g>
				</g>
				<g>
					<g>
						<g>
							<g>
								<polygon fill="#075399" points="23.707,62.115 25.82,63.333 25.82,65.773 23.707,64.553 								"/>
								<polyline fill="#087FBA" points="25.82,63.333 25.82,65.773 23.707,64.553 								"/>
								<polygon fill="#73E5FF" points="24.051,64.363 25.82,65.384 25.82,63.333 24.051,62.312 								"/>
								<polyline fill="#29CDFF" points="25.82,65.384 25.82,63.333 24.051,62.312 								"/>
								<polygon fill="#087FBA" points="23.931,63.198 23.931,63.492 25.82,64.583 25.82,64.287 								"/>
							</g>
						</g>
					</g>
				</g>
				<g>
					<g>
						<g>
							<g>
								<polygon fill="#075399" points="27.788,64.458 29.901,65.677 29.901,68.117 27.788,66.896 								"/>
								<polyline fill="#087FBA" points="29.901,65.677 29.901,68.117 27.788,66.896 								"/>
								<polygon fill="#73E5FF" points="28.132,66.706 29.901,67.728 29.901,65.677 28.132,64.658 								"/>
								<polyline fill="#29CDFF" points="29.901,67.728 29.901,65.677 28.132,64.658 								"/>
								<polygon fill="#087FBA" points="28.013,65.541 28.013,65.835 29.901,66.926 29.901,66.632 								"/>
							</g>
						</g>
					</g>
				</g>
				<g>
					<g>
						<g>
							<g>
								<polygon fill="#075399" points="31.871,66.802 33.983,68.022 33.983,70.46 31.871,69.24 								"/>
								<polyline fill="#087FBA" points="33.983,68.022 33.983,70.46 31.871,69.24 								"/>
								<polygon fill="#73E5FF" points="32.214,69.05 33.983,70.072 33.983,68.022 32.214,67 								"/>
								<polyline fill="#29CDFF" points="33.983,70.072 33.983,68.022 32.214,67 								"/>
								<polygon fill="#087FBA" points="32.094,67.884 32.094,68.178 33.983,69.271 33.983,68.975 								"/>
							</g>
						</g>
					</g>
				</g>
				<g>
					<g>
						<g>
							<g>
								<polygon fill="#075399" points="35.952,69.146 38.065,70.365 38.065,72.804 35.952,71.584 								"/>
								<polyline fill="#087FBA" points="38.065,70.365 38.065,72.804 35.952,71.584 								"/>
								<polygon fill="#73E5FF" points="36.296,71.394 38.065,72.416 38.065,70.365 36.296,69.343 								"/>
								<polyline fill="#29CDFF" points="38.065,72.416 38.065,70.365 36.296,69.343 								"/>
								<polygon fill="#087FBA" points="36.176,70.23 36.176,70.523 38.065,71.613 38.065,71.318 								"/>
							</g>
						</g>
					</g>
				</g>
			</g>
			<g>
				<g>
					<g>
						<g>
							<g>
								<polygon fill="#075399" points="7.38,57.427 9.493,58.648 9.493,61.087 7.38,59.867 								"/>
								<polyline fill="#087FBA" points="9.493,58.648 9.493,61.087 7.38,59.867 								"/>
								<polygon fill="#73E5FF" points="7.724,59.677 9.493,60.699 9.493,58.648 7.724,57.626 								"/>
								<polyline fill="#29CDFF" points="9.493,60.699 9.493,58.648 7.724,57.626 								"/>
								<polygon fill="#087FBA" points="7.604,58.511 7.604,58.805 9.493,59.896 9.493,59.601 								"/>
							</g>
						</g>
					</g>
				</g>
				<g>
					<g>
						<g>
							<g>
								<polygon fill="#075399" points="11.462,59.773 13.575,60.992 13.575,63.429 11.462,62.209 								"/>
								<polyline fill="#087FBA" points="13.575,60.992 13.575,63.429 11.462,62.209 								"/>
								<polygon fill="#73E5FF" points="11.806,62.019 13.575,63.042 13.575,60.992 11.806,59.97 								"/>
								<polyline fill="#29CDFF" points="13.575,63.042 13.575,60.992 11.806,59.97 								"/>
								<polygon fill="#087FBA" points="11.686,60.855 11.686,61.15 13.575,62.241 13.575,61.945 								"/>
							</g>
						</g>
					</g>
				</g>
				<g>
					<g>
						<g>
							<g>
								<polygon fill="#075399" points="15.544,62.116 17.657,63.335 17.657,65.774 15.544,64.554 								"/>
								<polyline fill="#087FBA" points="17.657,63.335 17.657,65.774 15.544,64.554 								"/>
								<polygon fill="#73E5FF" points="15.888,64.364 17.657,65.384 17.657,63.335 15.888,62.314 								"/>
								<polyline fill="#29CDFF" points="17.657,65.384 17.657,63.335 15.888,62.314 								"/>
								<polygon fill="#087FBA" points="15.768,63.198 15.768,63.492 17.657,64.583 17.657,64.289 								"/>
							</g>
						</g>
					</g>
				</g>
				<g>
					<g>
						<g>
							<g>
								<polygon fill="#075399" points="19.626,64.458 21.739,65.678 21.739,68.119 19.626,66.898 								"/>
								<polyline fill="#087FBA" points="21.739,65.678 21.739,68.119 19.626,66.898 								"/>
								<polygon fill="#73E5FF" points="19.97,66.708 21.739,67.728 21.739,65.678 19.97,64.658 								"/>
								<polyline fill="#29CDFF" points="21.739,67.728 21.739,65.678 19.97,64.658 								"/>
								<polygon fill="#087FBA" points="19.849,65.542 19.849,65.836 21.739,66.926 21.739,66.632 								"/>
							</g>
						</g>
					</g>
				</g>
				<g>
					<g>
						<g>
							<g>
								<polygon fill="#075399" points="23.707,66.802 25.82,68.022 25.82,70.46 23.707,69.242 								"/>
								<polyline fill="#087FBA" points="25.82,68.022 25.82,70.46 23.707,69.242 								"/>
								<polygon fill="#73E5FF" points="24.051,69.05 25.82,70.073 25.82,68.022 24.051,67 								"/>
								<polyline fill="#29CDFF" points="25.82,70.073 25.82,68.022 24.051,67 								"/>
								<polygon fill="#087FBA" points="23.931,67.886 23.931,68.181 25.82,69.271 25.82,68.975 								"/>
							</g>
						</g>
					</g>
				</g>
				<g>
					<g>
						<g>
							<g>
								<polygon fill="#075399" points="27.788,69.146 29.901,70.365 29.901,72.805 27.788,71.584 								"/>
								<polyline fill="#087FBA" points="29.901,70.365 29.901,72.805 27.788,71.584 								"/>
								<polygon fill="#73E5FF" points="28.132,71.394 29.901,72.416 29.901,70.365 28.132,69.345 								"/>
								<polyline fill="#29CDFF" points="29.901,72.416 29.901,70.365 28.132,69.345 								"/>
								<polygon fill="#087FBA" points="28.013,70.23 28.013,70.523 29.901,71.615 29.901,71.32 								"/>
							</g>
						</g>
					</g>
				</g>
				<g>
					<g>
						<g>
							<g>
								<polygon fill="#075399" points="31.871,71.49 33.983,72.71 33.983,75.149 31.871,73.929 								"/>
								<polyline fill="#087FBA" points="33.983,72.71 33.983,75.149 31.871,73.929 								"/>
								<polygon fill="#73E5FF" points="32.214,73.739 33.983,74.759 33.983,72.71 32.214,71.689 								"/>
								<polyline fill="#29CDFF" points="33.983,74.759 33.983,72.71 32.214,71.689 								"/>
								<polygon fill="#087FBA" points="32.094,72.574 32.094,72.867 33.983,73.958 33.983,73.664 								"/>
							</g>
						</g>
					</g>
				</g>
				<g>
					<g>
						<g>
							<g>
								<polygon fill="#075399" points="35.952,73.833 38.065,75.053 38.065,77.492 35.952,76.273 								"/>
								<polyline fill="#087FBA" points="38.065,75.053 38.065,77.492 35.952,76.273 								"/>
								<polygon fill="#73E5FF" points="36.296,76.082 38.065,77.105 38.065,75.053 36.296,74.031 								"/>
								<polyline fill="#29CDFF" points="38.065,77.105 38.065,75.053 36.296,74.031 								"/>
								<polygon fill="#087FBA" points="36.176,74.917 36.176,75.21 38.065,76.302 38.065,76.005 								"/>
							</g>
						</g>
					</g>
				</g>
			</g>
			<g>
				<g>
					<g>
						<g>
							<g>
								<polygon fill="#075399" points="7.38,62.116 9.493,63.335 9.493,65.775 7.38,64.554 								"/>
								<polyline fill="#087FBA" points="9.493,63.335 9.493,65.775 7.38,64.554 								"/>
								<polygon fill="#73E5FF" points="7.724,64.365 9.493,65.386 9.493,63.335 7.724,62.314 								"/>
								<polyline fill="#29CDFF" points="9.493,65.386 9.493,63.335 7.724,62.314 								"/>
								<polygon fill="#087FBA" points="7.604,63.201 7.604,63.494 9.493,64.584 9.493,64.289 								"/>
							</g>
						</g>
					</g>
				</g>
				<g>
					<g>
						<g>
							<g>
								<polygon fill="#075399" points="11.462,64.46 13.575,65.679 13.575,68.119 11.462,66.898 								"/>
								<polyline fill="#087FBA" points="13.575,65.679 13.575,68.119 11.462,66.898 								"/>
								<polygon fill="#73E5FF" points="11.806,66.708 13.575,67.73 13.575,65.679 11.806,64.658 								"/>
								<polyline fill="#29CDFF" points="13.575,67.73 13.575,65.679 11.806,64.658 								"/>
								<polygon fill="#087FBA" points="11.686,65.542 11.686,65.837 13.575,66.929 13.575,66.633 								"/>
							</g>
						</g>
					</g>
				</g>
				<g>
					<g>
						<g>
							<g>
								<polygon fill="#075399" points="15.544,66.804 17.657,68.023 17.657,70.462 15.544,69.243 								"/>
								<polyline fill="#087FBA" points="17.657,68.023 17.657,70.462 15.544,69.243 								"/>
								<polygon fill="#73E5FF" points="15.888,69.052 17.657,70.073 17.657,68.023 15.888,67.001 								"/>
								<polyline fill="#29CDFF" points="17.657,70.073 17.657,68.023 15.888,67.001 								"/>
								<polygon fill="#087FBA" points="15.768,67.886 15.768,68.181 17.657,69.271 17.657,68.976 								"/>
							</g>
						</g>
					</g>
				</g>
				<g>
					<g>
						<g>
							<g>
								<polygon fill="#075399" points="19.626,69.146 21.739,70.367 21.739,72.806 19.626,71.585 								"/>
								<polyline fill="#087FBA" points="21.739,70.367 21.739,72.806 19.626,71.585 								"/>
								<polygon fill="#73E5FF" points="19.97,71.396 21.739,72.417 21.739,70.367 19.97,69.345 								"/>
								<polyline fill="#29CDFF" points="21.739,72.417 21.739,70.367 19.97,69.345 								"/>
								<polygon fill="#087FBA" points="19.849,70.23 19.849,70.525 21.739,71.615 21.739,71.32 								"/>
							</g>
						</g>
					</g>
				</g>
				<g>
					<g>
						<g>
							<g>
								<polygon fill="#075399" points="23.707,71.491 25.82,72.71 25.82,75.149 23.707,73.929 								"/>
								<polyline fill="#087FBA" points="25.82,72.71 25.82,75.149 23.707,73.929 								"/>
								<polygon fill="#73E5FF" points="24.051,73.739 25.82,74.761 25.82,72.71 24.051,71.689 								"/>
								<polyline fill="#29CDFF" points="25.82,74.761 25.82,72.71 24.051,71.689 								"/>
								<polygon fill="#087FBA" points="23.931,72.574 23.931,72.869 25.82,73.96 25.82,73.664 								"/>
							</g>
						</g>
					</g>
				</g>
				<g>
					<g>
						<g>
							<g>
								<polygon fill="#075399" points="27.788,73.835 29.901,75.053 29.901,77.494 27.788,76.273 								"/>
								<polyline fill="#087FBA" points="29.901,75.053 29.901,77.494 27.788,76.273 								"/>
								<polygon fill="#73E5FF" points="28.132,76.082 29.901,77.105 29.901,75.053 28.132,74.033 								"/>
								<polyline fill="#29CDFF" points="29.901,77.105 29.901,75.053 28.132,74.033 								"/>
								<polygon fill="#087FBA" points="28.013,74.917 28.013,75.211 29.901,76.302 29.901,76.008 								"/>
							</g>
						</g>
					</g>
				</g>
				<g>
					<g>
						<g>
							<g>
								<polygon fill="#075399" points="31.871,76.177 33.983,77.398 33.983,79.837 31.871,78.617 								"/>
								<polyline fill="#087FBA" points="33.983,77.398 33.983,79.837 31.871,78.617 								"/>
								<polygon fill="#73E5FF" points="32.214,78.427 33.983,79.448 33.983,77.398 32.214,76.376 								"/>
								<polyline fill="#29CDFF" points="33.983,79.448 33.983,77.398 32.214,76.376 								"/>
								<polygon fill="#087FBA" points="32.094,77.261 32.094,77.554 33.983,78.648 33.983,78.351 								"/>
							</g>
						</g>
					</g>
				</g>
				<g>
					<g>
						<g>
							<g>
								<polygon fill="#075399" points="35.952,78.522 38.065,79.742 38.065,82.18 35.952,80.96 								"/>
								<polyline fill="#087FBA" points="38.065,79.742 38.065,82.18 35.952,80.96 								"/>
								<polygon fill="#73E5FF" points="36.296,80.771 38.065,81.792 38.065,79.742 36.296,78.719 								"/>
								<polyline fill="#29CDFF" points="38.065,81.792 38.065,79.742 36.296,78.719 								"/>
								<polygon fill="#087FBA" points="36.176,79.605 36.176,79.898 38.065,80.99 38.065,80.695 								"/>
							</g>
						</g>
					</g>
				</g>
			</g>
			<g>
				<g>
					<g>
						<g>
							<g>
								<polygon fill="#075399" points="7.38,66.804 9.493,68.023 9.493,70.463 7.38,69.243 								"/>
								<polyline fill="#087FBA" points="9.493,68.023 9.493,70.463 7.38,69.243 								"/>
								<polygon fill="#73E5FF" points="7.724,69.053 9.493,70.076 9.493,68.023 7.724,67.002 								"/>
								<polyline fill="#29CDFF" points="9.493,70.076 9.493,68.023 7.724,67.002 								"/>
								<polygon fill="#087FBA" points="7.604,67.888 7.604,68.181 9.493,69.273 9.493,68.977 								"/>
							</g>
						</g>
					</g>
				</g>
				<g>
					<g>
						<g>
							<g>
								<polygon fill="#075399" points="11.462,69.149 13.575,70.367 13.575,72.806 11.462,71.585 								"/>
								<polyline fill="#087FBA" points="13.575,70.367 13.575,72.806 11.462,71.585 								"/>
								<polygon fill="#73E5FF" points="11.806,71.396 13.575,72.417 13.575,70.367 11.806,69.346 								"/>
								<polyline fill="#29CDFF" points="13.575,72.417 13.575,70.367 11.806,69.346 								"/>
								<polygon fill="#087FBA" points="11.686,70.231 11.686,70.526 13.575,71.617 13.575,71.322 								"/>
							</g>
						</g>
					</g>
				</g>
				<g>
					<g>
						<g>
							<g>
								<polygon fill="#075399" points="15.544,71.492 17.657,72.711 17.657,75.15 15.544,73.931 								"/>
								<polyline fill="#087FBA" points="17.657,72.711 17.657,75.15 15.544,73.931 								"/>
								<polygon fill="#73E5FF" points="15.888,73.74 17.657,74.761 17.657,72.711 15.888,71.689 								"/>
								<polyline fill="#29CDFF" points="17.657,74.761 17.657,72.711 15.888,71.689 								"/>
								<polygon fill="#087FBA" points="15.768,72.574 15.768,72.869 17.657,73.96 17.657,73.664 								"/>
							</g>
						</g>
					</g>
				</g>
				<g>
					<g>
						<g>
							<g>
								<polygon fill="#075399" points="19.626,73.835 21.739,75.054 21.739,77.494 19.626,76.274 								"/>
								<polyline fill="#087FBA" points="21.739,75.054 21.739,77.494 19.626,76.274 								"/>
								<polygon fill="#73E5FF" points="19.97,76.083 21.739,77.105 21.739,75.054 19.97,74.033 								"/>
								<polyline fill="#29CDFF" points="21.739,77.105 21.739,75.054 19.97,74.033 								"/>
								<polygon fill="#087FBA" points="19.849,74.917 19.849,75.212 21.739,76.302 21.739,76.008 								"/>
							</g>
						</g>
					</g>
				</g>
				<g>
					<g>
						<g>
							<g>
								<polygon fill="#075399" points="23.707,76.179 25.82,77.398 25.82,79.837 23.707,78.618 								"/>
								<polyline fill="#087FBA" points="25.82,77.398 25.82,79.837 23.707,78.618 								"/>
								<polygon fill="#73E5FF" points="24.051,78.427 25.82,79.449 25.82,77.398 24.051,76.376 								"/>
								<polyline fill="#29CDFF" points="25.82,79.449 25.82,77.398 24.051,76.376 								"/>
								<polygon fill="#087FBA" points="23.931,77.262 23.931,77.556 25.82,78.648 25.82,78.351 								"/>
							</g>
						</g>
					</g>
				</g>
				<g>
					<g>
						<g>
							<g>
								<polygon fill="#075399" points="27.788,78.523 29.901,79.742 29.901,82.181 27.788,80.96 								"/>
								<polyline fill="#087FBA" points="29.901,79.742 29.901,82.181 27.788,80.96 								"/>
								<polygon fill="#73E5FF" points="28.132,80.771 29.901,81.792 29.901,79.742 28.132,78.722 								"/>
								<polyline fill="#29CDFF" points="29.901,81.792 29.901,79.742 28.132,78.722 								"/>
								<polygon fill="#087FBA" points="28.013,79.605 28.013,79.9 29.901,80.991 29.901,80.697 								"/>
							</g>
						</g>
					</g>
				</g>
				<g>
					<g>
						<g>
							<g>
								<polygon fill="#075399" points="31.871,80.866 33.983,82.086 33.983,84.525 31.871,83.304 								"/>
								<polyline fill="#087FBA" points="33.983,82.086 33.983,84.525 31.871,83.304 								"/>
								<polygon fill="#73E5FF" points="32.214,83.115 33.983,84.136 33.983,82.086 32.214,81.064 								"/>
								<polyline fill="#29CDFF" points="33.983,84.136 33.983,82.086 32.214,81.064 								"/>
								<polygon fill="#087FBA" points="32.094,81.949 32.094,82.243 33.983,83.335 33.983,83.04 								"/>
							</g>
						</g>
					</g>
				</g>
				<g>
					<g>
						<g>
							<g>
								<polygon fill="#075399" points="35.952,83.21 38.065,84.429 38.065,86.869 35.952,85.649 								"/>
								<polyline fill="#087FBA" points="38.065,84.429 38.065,86.869 35.952,85.649 								"/>
								<polygon fill="#73E5FF" points="36.296,85.458 38.065,86.48 38.065,84.429 36.296,83.408 								"/>
								<polyline fill="#29CDFF" points="38.065,86.48 38.065,84.429 36.296,83.408 								"/>
								<polygon fill="#087FBA" points="36.176,84.293 36.176,84.587 38.065,85.677 38.065,85.382 								"/>
							</g>
						</g>
					</g>
				</g>
			</g>
		</g>
		<g>
			<g>
				<g>
					<g>
						<g>
							<g>
								<polygon fill="#075399" points="60.638,57.426 58.524,58.646 58.524,61.085 60.638,59.865 								"/>
								<polyline fill="#087FBA" points="58.524,58.646 58.524,61.085 60.638,59.865 								"/>
								<polygon fill="#73E5FF" points="60.294,59.674 58.524,60.697 58.524,58.646 60.294,57.625 								"/>
								<polyline fill="#29CDFF" points="58.524,60.697 58.524,58.646 60.294,57.625 								"/>
								<polygon fill="#087FBA" points="60.414,58.509 60.414,58.804 58.524,59.896 58.524,59.599 								"/>
							</g>
						</g>
					</g>
				</g>
				<g>
					<g>
						<g>
							<g>
								<polygon fill="#075399" points="56.557,59.771 54.443,60.989 54.443,63.429 56.557,62.208 								"/>
								<polyline fill="#087FBA" points="54.443,60.989 54.443,63.429 56.557,62.208 								"/>
								<polygon fill="#73E5FF" points="56.213,62.017 54.443,63.04 54.443,60.989 56.213,59.969 								"/>
								<polyline fill="#29CDFF" points="54.443,63.04 54.443,60.989 56.213,59.969 								"/>
								<polygon fill="#087FBA" points="56.332,60.853 56.332,61.148 54.443,62.238 54.443,61.944 								"/>
							</g>
						</g>
					</g>
				</g>
				<g>
					<g>
						<g>
							<g>
								<polygon fill="#075399" points="52.474,62.113 50.361,63.333 50.361,65.773 52.474,64.552 								"/>
								<polyline fill="#087FBA" points="50.361,63.333 50.361,65.773 52.474,64.552 								"/>
								<polygon fill="#73E5FF" points="52.131,64.363 50.361,65.383 50.361,63.333 52.131,62.312 								"/>
								<polyline fill="#29CDFF" points="50.361,65.383 50.361,63.333 52.131,62.312 								"/>
								<polygon fill="#087FBA" points="52.251,63.197 52.251,63.49 50.361,64.583 50.361,64.287 								"/>
							</g>
						</g>
					</g>
				</g>
				<g>
					<g>
						<g>
							<g>
								<polygon fill="#075399" points="48.393,64.458 46.28,65.677 46.28,68.116 48.393,66.896 								"/>
								<polyline fill="#087FBA" points="46.28,65.677 46.28,68.116 48.393,66.896 								"/>
								<polygon fill="#73E5FF" points="48.05,66.706 46.28,67.728 46.28,65.677 48.05,64.655 								"/>
								<polyline fill="#29CDFF" points="46.28,67.728 46.28,65.677 48.05,64.655 								"/>
								<polygon fill="#087FBA" points="48.169,65.541 48.169,65.833 46.28,66.925 46.28,66.63 								"/>
							</g>
						</g>
					</g>
				</g>
			</g>
			<g>
				<g>
					<g>
						<g>
							<g>
								<polygon fill="#075399" points="60.638,62.115 58.524,63.333 58.524,65.773 60.638,64.553 								"/>
								<polyline fill="#087FBA" points="58.524,63.333 58.524,65.773 60.638,64.553 								"/>
								<polygon fill="#73E5FF" points="60.294,64.363 58.524,65.384 58.524,63.333 60.294,62.312 								"/>
								<polyline fill="#29CDFF" points="58.524,65.384 58.524,63.333 60.294,62.312 								"/>
								<polygon fill="#087FBA" points="60.414,63.198 60.414,63.492 58.524,64.583 58.524,64.287 								"/>
							</g>
						</g>
					</g>
				</g>
				<g>
					<g>
						<g>
							<g>
								<polygon fill="#075399" points="56.557,64.458 54.443,65.677 54.443,68.117 56.557,66.896 								"/>
								<polyline fill="#087FBA" points="54.443,65.677 54.443,68.117 56.557,66.896 								"/>
								<polygon fill="#73E5FF" points="56.213,66.706 54.443,67.728 54.443,65.677 56.213,64.658 								"/>
								<polyline fill="#29CDFF" points="54.443,67.728 54.443,65.677 56.213,64.658 								"/>
								<polygon fill="#087FBA" points="56.332,65.541 56.332,65.835 54.443,66.926 54.443,66.632 								"/>
							</g>
						</g>
					</g>
				</g>
				<g>
					<g>
						<g>
							<g>
								<polygon fill="#075399" points="52.474,66.802 50.361,68.022 50.361,70.46 52.474,69.24 								"/>
								<polyline fill="#087FBA" points="50.361,68.022 50.361,70.46 52.474,69.24 								"/>
								<polygon fill="#73E5FF" points="52.131,69.05 50.361,70.072 50.361,68.022 52.131,67 								"/>
								<polyline fill="#29CDFF" points="50.361,70.072 50.361,68.022 52.131,67 								"/>
								<polygon fill="#087FBA" points="52.251,67.884 52.251,68.178 50.361,69.271 50.361,68.975 								"/>
							</g>
						</g>
					</g>
				</g>
				<g>
					<g>
						<g>
							<g>
								<polygon fill="#075399" points="48.393,69.146 46.28,70.365 46.28,72.804 48.393,71.584 								"/>
								<polyline fill="#087FBA" points="46.28,70.365 46.28,72.804 48.393,71.584 								"/>
								<polygon fill="#73E5FF" points="48.05,71.394 46.28,72.416 46.28,70.365 48.05,69.343 								"/>
								<polyline fill="#29CDFF" points="46.28,72.416 46.28,70.365 48.05,69.343 								"/>
								<polygon fill="#087FBA" points="48.169,70.23 48.169,70.523 46.28,71.613 46.28,71.318 								"/>
							</g>
						</g>
					</g>
				</g>
			</g>
			<g>
				<g>
					<g>
						<g>
							<g>
								<polygon fill="#075399" points="60.638,66.802 58.524,68.022 58.524,70.46 60.638,69.242 								"/>
								<polyline fill="#087FBA" points="58.524,68.022 58.524,70.46 60.638,69.242 								"/>
								<polygon fill="#73E5FF" points="60.294,69.05 58.524,70.073 58.524,68.022 60.294,67 								"/>
								<polyline fill="#29CDFF" points="58.524,70.073 58.524,68.022 60.294,67 								"/>
								<polygon fill="#087FBA" points="60.414,67.886 60.414,68.181 58.524,69.271 58.524,68.975 								"/>
							</g>
						</g>
					</g>
				</g>
				<g>
					<g>
						<g>
							<g>
								<polygon fill="#075399" points="56.557,69.146 54.443,70.365 54.443,72.805 56.557,71.584 								"/>
								<polyline fill="#087FBA" points="54.443,70.365 54.443,72.805 56.557,71.584 								"/>
								<polygon fill="#73E5FF" points="56.213,71.394 54.443,72.416 54.443,70.365 56.213,69.345 								"/>
								<polyline fill="#29CDFF" points="54.443,72.416 54.443,70.365 56.213,69.345 								"/>
								<polygon fill="#087FBA" points="56.332,70.23 56.332,70.523 54.443,71.615 54.443,71.32 								"/>
							</g>
						</g>
					</g>
				</g>
				<g>
					<g>
						<g>
							<g>
								<polygon fill="#075399" points="52.474,71.49 50.361,72.71 50.361,75.149 52.474,73.929 								"/>
								<polyline fill="#087FBA" points="50.361,72.71 50.361,75.149 52.474,73.929 								"/>
								<polygon fill="#73E5FF" points="52.131,73.739 50.361,74.759 50.361,72.71 52.131,71.689 								"/>
								<polyline fill="#29CDFF" points="50.361,74.759 50.361,72.71 52.131,71.689 								"/>
								<polygon fill="#087FBA" points="52.251,72.574 52.251,72.867 50.361,73.958 50.361,73.664 								"/>
							</g>
						</g>
					</g>
				</g>
				<g>
					<g>
						<g>
							<g>
								<polygon fill="#075399" points="48.393,73.833 46.28,75.053 46.28,77.492 48.393,76.273 								"/>
								<polyline fill="#087FBA" points="46.28,75.053 46.28,77.492 48.393,76.273 								"/>
								<polygon fill="#73E5FF" points="48.05,76.082 46.28,77.105 46.28,75.053 48.05,74.031 								"/>
								<polyline fill="#29CDFF" points="46.28,77.105 46.28,75.053 48.05,74.031 								"/>
								<polygon fill="#087FBA" points="48.169,74.917 48.169,75.21 46.28,76.302 46.28,76.005 								"/>
							</g>
						</g>
					</g>
				</g>
			</g>
			<g>
				<g>
					<g>
						<g>
							<g>
								<polygon fill="#075399" points="60.638,71.491 58.524,72.71 58.524,75.149 60.638,73.929 								"/>
								<polyline fill="#087FBA" points="58.524,72.71 58.524,75.149 60.638,73.929 								"/>
								<polygon fill="#73E5FF" points="60.294,73.739 58.524,74.761 58.524,72.71 60.294,71.689 								"/>
								<polyline fill="#29CDFF" points="58.524,74.761 58.524,72.71 60.294,71.689 								"/>
								<polygon fill="#087FBA" points="60.414,72.574 60.414,72.869 58.524,73.96 58.524,73.664 								"/>
							</g>
						</g>
					</g>
				</g>
				<g>
					<g>
						<g>
							<g>
								<polygon fill="#075399" points="56.557,73.835 54.443,75.053 54.443,77.494 56.557,76.273 								"/>
								<polyline fill="#087FBA" points="54.443,75.053 54.443,77.494 56.557,76.273 								"/>
								<polygon fill="#73E5FF" points="56.213,76.082 54.443,77.105 54.443,75.053 56.213,74.033 								"/>
								<polyline fill="#29CDFF" points="54.443,77.105 54.443,75.053 56.213,74.033 								"/>
								<polygon fill="#087FBA" points="56.332,74.917 56.332,75.211 54.443,76.302 54.443,76.008 								"/>
							</g>
						</g>
					</g>
				</g>
				<g>
					<g>
						<g>
							<g>
								<polygon fill="#075399" points="52.474,76.177 50.361,77.398 50.361,79.837 52.474,78.617 								"/>
								<polyline fill="#087FBA" points="50.361,77.398 50.361,79.837 52.474,78.617 								"/>
								<polygon fill="#73E5FF" points="52.131,78.427 50.361,79.448 50.361,77.398 52.131,76.376 								"/>
								<polyline fill="#29CDFF" points="50.361,79.448 50.361,77.398 52.131,76.376 								"/>
								<polygon fill="#087FBA" points="52.251,77.261 52.251,77.554 50.361,78.648 50.361,78.351 								"/>
							</g>
						</g>
					</g>
				</g>
				<g>
					<g>
						<g>
							<g>
								<polygon fill="#075399" points="48.393,78.522 46.28,79.742 46.28,82.18 48.393,80.96 								"/>
								<polyline fill="#087FBA" points="46.28,79.742 46.28,82.18 48.393,80.96 								"/>
								<polygon fill="#73E5FF" points="48.05,80.771 46.28,81.792 46.28,79.742 48.05,78.719 								"/>
								<polyline fill="#29CDFF" points="46.28,81.792 46.28,79.742 48.05,78.719 								"/>
								<polygon fill="#087FBA" points="48.169,79.605 48.169,79.898 46.28,80.99 46.28,80.695 								"/>
							</g>
						</g>
					</g>
				</g>
			</g>
			<g>
				<g>
					<g>
						<g>
							<g>
								<polygon fill="#075399" points="60.638,76.179 58.524,77.398 58.524,79.837 60.638,78.618 								"/>
								<polyline fill="#087FBA" points="58.524,77.398 58.524,79.837 60.638,78.618 								"/>
								<polygon fill="#73E5FF" points="60.294,78.427 58.524,79.449 58.524,77.398 60.294,76.376 								"/>
								<polyline fill="#29CDFF" points="58.524,79.449 58.524,77.398 60.294,76.376 								"/>
								<polygon fill="#087FBA" points="60.414,77.262 60.414,77.556 58.524,78.648 58.524,78.351 								"/>
							</g>
						</g>
					</g>
				</g>
				<g>
					<g>
						<g>
							<g>
								<polygon fill="#075399" points="56.557,78.523 54.443,79.742 54.443,82.181 56.557,80.96 								"/>
								<polyline fill="#087FBA" points="54.443,79.742 54.443,82.181 56.557,80.96 								"/>
								<polygon fill="#73E5FF" points="56.213,80.771 54.443,81.792 54.443,79.742 56.213,78.722 								"/>
								<polyline fill="#29CDFF" points="54.443,81.792 54.443,79.742 56.213,78.722 								"/>
								<polygon fill="#087FBA" points="56.332,79.605 56.332,79.9 54.443,80.991 54.443,80.697 								"/>
							</g>
						</g>
					</g>
				</g>
				<g>
					<g>
						<g>
							<g>
								<polygon fill="#075399" points="52.474,80.866 50.361,82.086 50.361,84.525 52.474,83.304 								"/>
								<polyline fill="#087FBA" points="50.361,82.086 50.361,84.525 52.474,83.304 								"/>
								<polygon fill="#73E5FF" points="52.131,83.115 50.361,84.136 50.361,82.086 52.131,81.064 								"/>
								<polyline fill="#29CDFF" points="50.361,84.136 50.361,82.086 52.131,81.064 								"/>
								<polygon fill="#087FBA" points="52.251,81.949 52.251,82.243 50.361,83.335 50.361,83.04 								"/>
							</g>
						</g>
					</g>
				</g>
				<g>
					<g>
						<g>
							<g>
								<polygon fill="#075399" points="48.393,83.21 46.28,84.429 46.28,86.869 48.393,85.649 								"/>
								<polyline fill="#087FBA" points="46.28,84.429 46.28,86.869 48.393,85.649 								"/>
								<polygon fill="#73E5FF" points="48.05,85.458 46.28,86.48 46.28,84.429 48.05,83.408 								"/>
								<polyline fill="#29CDFF" points="46.28,86.48 46.28,84.429 48.05,83.408 								"/>
								<polygon fill="#087FBA" points="48.169,84.293 48.169,84.587 46.28,85.677 46.28,85.382 								"/>
							</g>
						</g>
					</g>
				</g>
			</g>
		</g>
	</g>
	<g>
		<polygon fill="#637C7C" points="58.555,34.406 58.555,113.134 94.962,92.113 94.962,13.384 		"/>
		<polyline fill="#5F7777" points="94.962,13.384 58.555,34.406 58.555,113.134 		"/>
		<polygon fill="#8EAFAF" points="40.349,23.894 40.349,102.625 58.555,113.134 58.555,34.406 		"/>
		<polyline fill="#84A4A5" points="58.555,113.134 58.555,34.406 40.349,23.894 		"/>
		<polygon fill="#042633" points="58.555,39.427 94.962,18.406 94.962,13.384 58.555,34.406 		"/>
		<polygon fill="#095A8C" points="40.349,28.917 58.555,39.427 58.555,34.406 40.349,23.894 		"/>
		<polygon fill="#094572" points="76.759,2.874 40.349,23.894 58.555,34.406 94.962,13.384 		"/>
	</g>
	<g>
		<path fill="#042633" d="M48.404,36.064c-3.385-1.955-6.154-0.353-6.154,3.557c0,3.908,2.77,8.701,6.154,10.655
			s6.154,0.356,6.154-3.552S51.789,38.019,48.404,36.064z"/>
		<polygon fill="#042633" points="44.285,35.525 41.28,37.24 50.005,52.277 52.876,50.617 		"/>
		<path fill="#0B77AD" d="M45.645,37.651c3.387,1.954,6.154,6.751,6.154,10.66c0,3.906-2.768,5.506-6.154,3.552
			c-3.384-1.954-6.152-6.749-6.152-10.658C39.492,37.298,42.261,35.696,45.645,37.651z"/>
		<path fill="#095A8C" d="M45.645,37.651c3.387,1.954,6.154,6.751,6.154,10.66c0,3.906-2.768,5.506-6.154,3.552"/>
		<path fill="#C7EAEA" d="M45.645,38.63c2.919,1.685,5.307,5.82,5.307,9.191c0,3.369-2.388,4.748-5.307,3.063
			c-2.917-1.686-5.305-5.82-5.305-9.19C40.34,38.326,42.728,36.946,45.645,38.63z"/>
		<path fill="#A7CECD" d="M45.645,38.63c2.919,1.685,5.307,5.82,5.307,9.191c0,3.369-2.388,4.748-5.307,3.063
			c-2.917-1.686-5.305-5.82-5.305-9.19C40.34,38.326,42.728,36.946,45.645,38.63z"/>
		<path fill="#DCF7F6" d="M46.003,38.992c2.653,1.531,4.822,5.291,4.822,8.354c0,3.061-2.169,4.314-4.822,2.783
			c-2.651-1.531-4.82-5.288-4.82-8.352C41.183,38.715,43.352,37.46,46.003,38.992z"/>
		<path fill="#4F8E8B" d="M41.741,42.336c0.027-0.049,0.089-0.065,0.137-0.038l3.919,2.264v0.231l-4.019-2.318
			C41.729,42.446,41.712,42.384,41.741,42.336z"/>
		<path fill="#C7EAEA" d="M46.003,38.992c2.653,1.531,4.822,5.291,4.822,8.354c0,3.061-2.169,4.314-4.822,2.783"/>
		<path fill="#A50202" d="M45.813,41.08l0.379,0.219c0.105,0.061,0.19,0.208,0.19,0.33v3.201c0,0.12-0.085,0.169-0.19,0.109
			l-0.379-0.221c-0.104-0.059-0.189-0.209-0.189-0.328v-3.2C45.624,41.07,45.709,41.021,45.813,41.08z"/>
		<g>
			<path fill="#E06A00" d="M46.003,44.042c-0.253-0.147-0.461-0.026-0.461,0.266c0,0.294,0.208,0.653,0.461,0.799
				c0.255,0.147,0.462,0.026,0.462-0.266S46.258,44.187,46.003,44.042z"/>
			<polygon fill="#E06A00" points="45.694,44.001 45.469,44.128 46.124,45.256 46.339,45.132 			"/>
			<path fill="#FF9D00" d="M45.797,44.16c0.253,0.147,0.461,0.506,0.461,0.799s-0.208,0.412-0.461,0.267
				c-0.255-0.146-0.462-0.505-0.462-0.799S45.542,44.013,45.797,44.16z"/>
		</g>
	</g>
	<g>
		<polygon fill="#1FB1EA" points="42.805,55.946 56.099,63.621 56.099,59.954 42.805,52.277 		"/>
		<polygon fill="#1191D1" points="43.161,55.66 56.099,63.128 56.099,59.954 43.161,52.484 		"/>
	</g>
	<g>
		<polygon fill="#1FB1EA" points="42.805,63.158 56.099,70.833 56.099,67.166 42.805,59.49 		"/>
		<polygon fill="#1191D1" points="43.161,62.873 56.099,70.34 56.099,67.166 43.161,59.696 		"/>
	</g>
	<g>
		<polygon fill="#1FB1EA" points="42.805,70.37 56.099,78.044 56.099,74.376 42.805,66.701 		"/>
		<polygon fill="#1191D1" points="43.161,70.083 56.099,77.552 56.099,74.376 43.161,66.908 		"/>
	</g>
	<g>
		<polygon fill="#1FB1EA" points="42.805,77.582 56.099,85.256 56.099,81.589 42.805,73.914 		"/>
		<polygon fill="#1191D1" points="43.161,77.296 56.099,84.764 56.099,81.589 43.161,74.119 		"/>
	</g>
	<g>
		<polygon fill="#1FB1EA" points="42.805,84.792 56.099,92.468 56.099,88.8 42.805,81.125 		"/>
		<polygon fill="#1191D1" points="43.161,84.507 56.099,91.976 56.099,88.8 43.161,81.332 		"/>
	</g>
	<g>
		<polygon fill="#1FB1EA" points="42.805,92.005 56.099,99.679 56.099,96.013 42.805,88.336 		"/>
		<polygon fill="#1191D1" points="43.161,91.719 56.099,99.189 56.099,96.013 43.161,88.542 		"/>
	</g>
	<g>
		<g>
			<g>
				<g>
					<polygon fill="#5F7777" points="124.55,115.634 101.396,129 101.396,93.085 114.668,85.923 124.55,87.809 					"/>
					<polygon fill="#84A4A5" points="101.396,93.085 66.251,80.898 66.251,108.724 101.396,129 					"/>
					<polygon fill="#637C7C" points="124.55,113.626 101.396,126.996 101.396,99.171 114.668,83.916 124.55,85.8 					"/>
					<polyline fill="#5F7777" points="101.396,126.996 101.396,99.171 114.668,83.916 124.55,85.8 					"/>
					<polyline fill="#4E6363" points="101.396,99.171 114.668,83.916 124.55,85.8 					"/>
					<polygon fill="#8EAFAF" points="101.396,99.171 66.251,78.891 66.251,106.716 101.396,126.996 					"/>
					<polyline fill="#84A4A5" points="101.396,126.996 101.396,99.171 66.251,78.891 					"/>
					<polygon fill="#094572" points="114.668,83.916 79.481,63.614 66.251,78.891 101.396,99.171 					"/>
					<polyline fill="#053A5B" points="101.396,99.171 114.668,83.916 79.481,63.614 					"/>
					<polygon fill="#042633" points="79.481,63.614 89.405,65.524 124.55,85.8 114.668,83.916 					"/>
					<polyline fill="#092838" points="124.55,85.8 114.668,83.916 79.481,63.614 					"/>
				</g>
			</g>
		</g>
		<g>
			<g>
				<g>
					<g>
						<g>
							<g>
								<polygon fill="#075399" points="68.181,83.185 70.294,84.405 70.294,86.845 68.181,85.625 								"/>
								<polyline fill="#087FBA" points="70.294,84.405 70.294,86.845 68.181,85.625 								"/>
								<polygon fill="#73E5FF" points="68.524,85.435 70.294,86.457 70.294,84.405 68.524,83.384 								"/>
								<polyline fill="#29CDFF" points="70.294,86.457 70.294,84.405 68.524,83.384 								"/>
								<polygon fill="#087FBA" points="68.405,84.271 68.405,84.564 70.294,85.654 70.294,85.359 								"/>
							</g>
						</g>
					</g>
				</g>
				<g>
					<g>
						<g>
							<g>
								<polygon fill="#075399" points="72.263,85.531 74.376,86.75 74.376,89.189 72.263,87.967 								"/>
								<polyline fill="#087FBA" points="74.376,86.75 74.376,89.189 72.263,87.967 								"/>
								<polygon fill="#73E5FF" points="72.606,87.778 74.376,88.8 74.376,86.75 72.606,85.728 								"/>
								<polyline fill="#29CDFF" points="74.376,88.8 74.376,86.75 72.606,85.728 								"/>
								<polygon fill="#087FBA" points="72.486,86.613 72.486,86.908 74.376,87.999 74.376,87.703 								"/>
							</g>
						</g>
					</g>
				</g>
				<g>
					<g>
						<g>
							<g>
								<polygon fill="#075399" points="76.345,87.874 78.457,89.093 78.457,91.532 76.345,90.312 								"/>
								<polyline fill="#087FBA" points="78.457,89.093 78.457,91.532 76.345,90.312 								"/>
								<polygon fill="#73E5FF" points="76.688,90.122 78.457,91.142 78.457,89.093 76.688,88.072 								"/>
								<polyline fill="#29CDFF" points="78.457,91.142 78.457,89.093 76.688,88.072 								"/>
								<polygon fill="#087FBA" points="76.568,88.957 76.568,89.25 78.457,90.341 78.457,90.046 								"/>
							</g>
						</g>
					</g>
				</g>
				<g>
					<g>
						<g>
							<g>
								<polygon fill="#075399" points="80.427,90.216 82.54,91.436 82.54,93.876 80.427,92.656 								"/>
								<polyline fill="#087FBA" points="82.54,91.436 82.54,93.876 80.427,92.656 								"/>
								<polygon fill="#73E5FF" points="80.771,92.466 82.54,93.487 82.54,91.436 80.771,90.416 								"/>
								<polyline fill="#29CDFF" points="82.54,93.487 82.54,91.436 80.771,90.416 								"/>
								<polygon fill="#087FBA" points="80.649,91.3 80.649,91.594 82.54,92.685 82.54,92.39 								"/>
							</g>
						</g>
					</g>
				</g>
				<g>
					<g>
						<g>
							<g>
								<polygon fill="#075399" points="84.508,92.56 86.621,93.781 86.621,96.218 84.508,95 								"/>
								<polyline fill="#087FBA" points="86.621,93.781 86.621,96.218 84.508,95 								"/>
								<polygon fill="#73E5FF" points="84.852,94.808 86.621,95.831 86.621,93.781 84.852,92.758 								"/>
								<polyline fill="#29CDFF" points="86.621,95.831 86.621,93.781 84.852,92.758 								"/>
								<polygon fill="#087FBA" points="84.731,93.644 84.731,93.939 86.621,95.03 86.621,94.733 								"/>
							</g>
						</g>
					</g>
				</g>
				<g>
					<g>
						<g>
							<g>
								<polygon fill="#075399" points="88.589,94.905 90.702,96.123 90.702,98.564 88.589,97.342 								"/>
								<polyline fill="#087FBA" points="90.702,96.123 90.702,98.564 88.589,97.342 								"/>
								<polygon fill="#73E5FF" points="88.933,97.152 90.702,98.173 90.702,96.123 88.933,95.103 								"/>
								<polyline fill="#29CDFF" points="90.702,98.173 90.702,96.123 88.933,95.103 								"/>
								<polygon fill="#087FBA" points="88.813,95.987 88.813,96.281 90.702,97.373 90.702,97.078 								"/>
							</g>
						</g>
					</g>
				</g>
				<g>
					<g>
						<g>
							<g>
								<polygon fill="#075399" points="92.671,97.248 94.784,98.468 94.784,100.908 92.671,99.687 								"/>
								<polyline fill="#087FBA" points="94.784,98.468 94.784,100.908 92.671,99.687 								"/>
								<polygon fill="#73E5FF" points="93.015,99.498 94.784,100.517 94.784,98.468 93.015,97.447 								"/>
								<polyline fill="#29CDFF" points="94.784,100.517 94.784,98.468 93.015,97.447 								"/>
								<polygon fill="#087FBA" points="92.895,98.332 92.895,98.625 94.784,99.716 94.784,99.421 								"/>
							</g>
						</g>
					</g>
				</g>
				<g>
					<g>
						<g>
							<g>
								<polygon fill="#075399" points="96.753,99.591 98.866,100.811 98.866,103.25 96.753,102.031 								"/>
								<polyline fill="#087FBA" points="98.866,100.811 98.866,103.25 96.753,102.031 								"/>
								<polygon fill="#73E5FF" points="97.097,101.839 98.866,102.862 98.866,100.811 97.097,99.789 								"/>
								<polyline fill="#29CDFF" points="98.866,102.862 98.866,100.811 97.097,99.789 								"/>
								<polygon fill="#087FBA" points="96.977,100.675 96.977,100.968 98.866,102.06 98.866,101.764 								"/>
							</g>
						</g>
					</g>
				</g>
			</g>
			<g>
				<g>
					<g>
						<g>
							<g>
								<polygon fill="#075399" points="68.181,87.874 70.294,89.093 70.294,91.533 68.181,90.312 								"/>
								<polyline fill="#087FBA" points="70.294,89.093 70.294,91.533 68.181,90.312 								"/>
								<polygon fill="#73E5FF" points="68.524,90.123 70.294,91.146 70.294,89.093 68.524,88.072 								"/>
								<polyline fill="#29CDFF" points="70.294,91.146 70.294,89.093 68.524,88.072 								"/>
								<polygon fill="#087FBA" points="68.405,88.958 68.405,89.251 70.294,90.343 70.294,90.046 								"/>
							</g>
						</g>
					</g>
				</g>
				<g>
					<g>
						<g>
							<g>
								<polygon fill="#075399" points="72.263,90.218 74.376,91.437 74.376,93.876 72.263,92.656 								"/>
								<polyline fill="#087FBA" points="74.376,91.437 74.376,93.876 72.263,92.656 								"/>
								<polygon fill="#73E5FF" points="72.606,92.466 74.376,93.488 74.376,91.437 72.606,90.417 								"/>
								<polyline fill="#29CDFF" points="74.376,93.488 74.376,91.437 72.606,90.417 								"/>
								<polygon fill="#087FBA" points="72.486,91.3 72.486,91.595 74.376,92.687 74.376,92.391 								"/>
							</g>
						</g>
					</g>
				</g>
				<g>
					<g>
						<g>
							<g>
								<polygon fill="#075399" points="76.345,92.562 78.457,93.781 78.457,96.22 76.345,95 								"/>
								<polyline fill="#087FBA" points="78.457,93.781 78.457,96.22 76.345,95 								"/>
								<polygon fill="#73E5FF" points="76.688,94.81 78.457,95.831 78.457,93.781 76.688,92.759 								"/>
								<polyline fill="#29CDFF" points="78.457,95.831 78.457,93.781 76.688,92.759 								"/>
								<polygon fill="#087FBA" points="76.568,93.644 76.568,93.939 78.457,95.03 78.457,94.734 								"/>
							</g>
						</g>
					</g>
				</g>
				<g>
					<g>
						<g>
							<g>
								<polygon fill="#075399" points="80.427,94.905 82.54,96.125 82.54,98.564 80.427,97.343 								"/>
								<polyline fill="#087FBA" points="82.54,96.125 82.54,98.564 80.427,97.343 								"/>
								<polygon fill="#73E5FF" points="80.771,97.154 82.54,98.175 82.54,96.125 80.771,95.103 								"/>
								<polyline fill="#29CDFF" points="82.54,98.175 82.54,96.125 80.771,95.103 								"/>
								<polygon fill="#087FBA" points="80.649,95.988 80.649,96.283 82.54,97.373 82.54,97.078 								"/>
							</g>
						</g>
					</g>
				</g>
				<g>
					<g>
						<g>
							<g>
								<polygon fill="#075399" points="84.508,97.249 86.621,98.468 86.621,100.908 84.508,99.687 								"/>
								<polyline fill="#087FBA" points="86.621,98.468 86.621,100.908 84.508,99.687 								"/>
								<polygon fill="#73E5FF" points="84.852,99.498 86.621,100.519 86.621,98.468 84.852,97.447 								"/>
								<polyline fill="#29CDFF" points="86.621,100.519 86.621,98.468 84.852,97.447 								"/>
								<polygon fill="#087FBA" points="84.731,98.332 84.731,98.626 86.621,99.718 86.621,99.421 								"/>
							</g>
						</g>
					</g>
				</g>
				<g>
					<g>
						<g>
							<g>
								<polygon fill="#075399" points="88.589,99.593 90.702,100.811 90.702,103.251 88.589,102.031 								"/>
								<polyline fill="#087FBA" points="90.702,100.811 90.702,103.251 88.589,102.031 								"/>
								<polygon fill="#73E5FF" points="88.933,101.839 90.702,102.862 90.702,100.811 88.933,99.792 								"/>
								<polyline fill="#29CDFF" points="90.702,102.862 90.702,100.811 88.933,99.792 								"/>
								<polygon fill="#087FBA" points="88.813,100.675 88.813,100.97 90.702,102.06 90.702,101.766 								"/>
							</g>
						</g>
					</g>
				</g>
				<g>
					<g>
						<g>
							<g>
								<polygon fill="#075399" points="92.671,101.935 94.784,103.156 94.784,105.595 92.671,104.375 								"/>
								<polyline fill="#087FBA" points="94.784,103.156 94.784,105.595 92.671,104.375 								"/>
								<polygon fill="#73E5FF" points="93.015,104.185 94.784,105.207 94.784,103.156 93.015,102.134 								"/>
								<polyline fill="#29CDFF" points="94.784,105.207 94.784,103.156 93.015,102.134 								"/>
								<polygon fill="#087FBA" points="92.895,103.019 92.895,103.312 94.784,104.405 94.784,104.109 								"/>
							</g>
						</g>
					</g>
				</g>
				<g>
					<g>
						<g>
							<g>
								<polygon fill="#075399" points="96.753,104.28 98.866,105.5 98.866,107.939 96.753,106.718 								"/>
								<polyline fill="#087FBA" points="98.866,105.5 98.866,107.939 96.753,106.718 								"/>
								<polygon fill="#73E5FF" points="97.097,106.528 98.866,107.55 98.866,105.5 97.097,104.478 								"/>
								<polyline fill="#29CDFF" points="98.866,107.55 98.866,105.5 97.097,104.478 								"/>
								<polygon fill="#087FBA" points="96.977,105.363 96.977,105.657 98.866,106.748 98.866,106.453 								"/>
							</g>
						</g>
					</g>
				</g>
			</g>
			<g>
				<g>
					<g>
						<g>
							<g>
								<polygon fill="#075399" points="68.181,92.562 70.294,93.781 70.294,96.221 68.181,95 								"/>
								<polyline fill="#087FBA" points="70.294,93.781 70.294,96.221 68.181,95 								"/>
								<polygon fill="#73E5FF" points="68.524,94.811 70.294,95.833 70.294,93.781 68.524,92.76 								"/>
								<polyline fill="#29CDFF" points="70.294,95.833 70.294,93.781 68.524,92.76 								"/>
								<polygon fill="#087FBA" points="68.405,93.646 68.405,93.939 70.294,95.031 70.294,94.736 								"/>
							</g>
						</g>
					</g>
				</g>
				<g>
					<g>
						<g>
							<g>
								<polygon fill="#075399" points="72.263,94.907 74.376,96.125 74.376,98.564 72.263,97.343 								"/>
								<polyline fill="#087FBA" points="74.376,96.125 74.376,98.564 72.263,97.343 								"/>
								<polygon fill="#73E5FF" points="72.606,97.154 74.376,98.175 74.376,96.125 72.606,95.105 								"/>
								<polyline fill="#29CDFF" points="74.376,98.175 74.376,96.125 72.606,95.105 								"/>
								<polygon fill="#087FBA" points="72.486,95.99 72.486,96.284 74.376,97.375 74.376,97.08 								"/>
							</g>
						</g>
					</g>
				</g>
				<g>
					<g>
						<g>
							<g>
								<polygon fill="#075399" points="76.345,97.25 78.457,98.469 78.457,100.908 76.345,99.689 								"/>
								<polyline fill="#087FBA" points="78.457,98.469 78.457,100.908 76.345,99.689 								"/>
								<polygon fill="#73E5FF" points="76.688,99.498 78.457,100.519 78.457,98.469 76.688,97.447 								"/>
								<polyline fill="#29CDFF" points="78.457,100.519 78.457,98.469 76.688,97.447 								"/>
								<polygon fill="#087FBA" points="76.568,98.332 76.568,98.626 78.457,99.718 78.457,99.422 								"/>
							</g>
						</g>
					</g>
				</g>
				<g>
					<g>
						<g>
							<g>
								<polygon fill="#075399" points="80.427,99.593 82.54,100.812 82.54,103.252 80.427,102.032 								"/>
								<polyline fill="#087FBA" points="82.54,100.812 82.54,103.252 80.427,102.032 								"/>
								<polygon fill="#73E5FF" points="80.771,101.842 82.54,102.863 82.54,100.812 80.771,99.792 								"/>
								<polyline fill="#29CDFF" points="82.54,102.863 82.54,100.812 80.771,99.792 								"/>
								<polygon fill="#087FBA" points="80.649,100.676 80.649,100.97 82.54,102.06 82.54,101.766 								"/>
							</g>
						</g>
					</g>
				</g>
				<g>
					<g>
						<g>
							<g>
								<polygon fill="#075399" points="84.508,101.937 86.621,103.156 86.621,105.595 84.508,104.376 								"/>
								<polyline fill="#087FBA" points="86.621,103.156 86.621,105.595 84.508,104.376 								"/>
								<polygon fill="#73E5FF" points="84.852,104.185 86.621,105.207 86.621,103.156 84.852,102.134 								"/>
								<polyline fill="#29CDFF" points="86.621,105.207 86.621,103.156 84.852,102.134 								"/>
								<polygon fill="#087FBA" points="84.731,103.021 84.731,103.315 86.621,104.406 86.621,104.109 								"/>
							</g>
						</g>
					</g>
				</g>
				<g>
					<g>
						<g>
							<g>
								<polygon fill="#075399" points="88.589,104.281 90.702,105.5 90.702,107.939 88.589,106.718 								"/>
								<polyline fill="#087FBA" points="90.702,105.5 90.702,107.939 88.589,106.718 								"/>
								<polygon fill="#73E5FF" points="88.933,106.528 90.702,107.55 90.702,105.5 88.933,104.48 								"/>
								<polyline fill="#29CDFF" points="90.702,107.55 90.702,105.5 88.933,104.48 								"/>
								<polygon fill="#087FBA" points="88.813,105.363 88.813,105.658 90.702,106.75 90.702,106.455 								"/>
							</g>
						</g>
					</g>
				</g>
				<g>
					<g>
						<g>
							<g>
								<polygon fill="#075399" points="92.671,106.625 94.784,107.845 94.784,110.283 92.671,109.064 								"/>
								<polyline fill="#087FBA" points="94.784,107.845 94.784,110.283 92.671,109.064 								"/>
								<polygon fill="#73E5FF" points="93.015,108.873 94.784,109.894 94.784,107.845 93.015,106.823 								"/>
								<polyline fill="#29CDFF" points="94.784,109.894 94.784,107.845 93.015,106.823 								"/>
								<polygon fill="#087FBA" points="92.895,107.707 92.895,108 94.784,109.093 94.784,108.797 								"/>
							</g>
						</g>
					</g>
				</g>
				<g>
					<g>
						<g>
							<g>
								<polygon fill="#075399" points="96.753,108.968 98.866,110.187 98.866,112.626 96.753,111.407 								"/>
								<polyline fill="#087FBA" points="98.866,110.187 98.866,112.626 96.753,111.407 								"/>
								<polygon fill="#73E5FF" points="97.097,111.216 98.866,112.238 98.866,110.187 97.097,109.166 								"/>
								<polyline fill="#29CDFF" points="98.866,112.238 98.866,110.187 97.097,109.166 								"/>
								<polygon fill="#087FBA" points="96.977,110.051 96.977,110.345 98.866,111.437 98.866,111.14 								"/>
							</g>
						</g>
					</g>
				</g>
			</g>
			<g>
				<g>
					<g>
						<g>
							<g>
								<polygon fill="#075399" points="68.181,97.25 70.294,98.469 70.294,100.91 68.181,99.689 								"/>
								<polyline fill="#087FBA" points="70.294,98.469 70.294,100.91 68.181,99.689 								"/>
								<polygon fill="#73E5FF" points="68.524,99.5 70.294,100.521 70.294,98.469 68.524,97.449 								"/>
								<polyline fill="#29CDFF" points="70.294,100.521 70.294,98.469 68.524,97.449 								"/>
								<polygon fill="#087FBA" points="68.405,98.334 68.405,98.628 70.294,99.718 70.294,99.423 								"/>
							</g>
						</g>
					</g>
				</g>
				<g>
					<g>
						<g>
							<g>
								<polygon fill="#075399" points="72.263,99.595 74.376,100.814 74.376,103.252 72.263,102.032 								"/>
								<polyline fill="#087FBA" points="74.376,100.814 74.376,103.252 72.263,102.032 								"/>
								<polygon fill="#73E5FF" points="72.606,101.842 74.376,102.865 74.376,100.814 72.606,99.792 								"/>
								<polyline fill="#29CDFF" points="74.376,102.865 74.376,100.814 72.606,99.792 								"/>
								<polygon fill="#087FBA" points="72.486,100.677 72.486,100.972 74.376,102.064 74.376,101.767 								"/>
							</g>
						</g>
					</g>
				</g>
				<g>
					<g>
						<g>
							<g>
								<polygon fill="#075399" points="76.345,101.939 78.457,103.158 78.457,105.596 76.345,104.376 								"/>
								<polyline fill="#087FBA" points="78.457,103.158 78.457,105.596 76.345,104.376 								"/>
								<polygon fill="#73E5FF" points="76.688,104.186 78.457,105.207 78.457,103.158 76.688,102.135 								"/>
								<polyline fill="#29CDFF" points="78.457,105.207 78.457,103.158 76.688,102.135 								"/>
								<polygon fill="#087FBA" points="76.568,103.021 76.568,103.315 78.457,104.406 78.457,104.111 								"/>
							</g>
						</g>
					</g>
				</g>
				<g>
					<g>
						<g>
							<g>
								<polygon fill="#075399" points="80.427,104.281 82.54,105.5 82.54,107.941 80.427,106.72 								"/>
								<polyline fill="#087FBA" points="82.54,105.5 82.54,107.941 80.427,106.72 								"/>
								<polygon fill="#73E5FF" points="80.771,106.531 82.54,107.551 82.54,105.5 80.771,104.48 								"/>
								<polyline fill="#29CDFF" points="82.54,107.551 82.54,105.5 80.771,104.48 								"/>
								<polygon fill="#087FBA" points="80.649,105.365 80.649,105.659 82.54,106.75 82.54,106.455 								"/>
							</g>
						</g>
					</g>
				</g>
				<g>
					<g>
						<g>
							<g>
								<polygon fill="#075399" points="84.508,106.625 86.621,107.845 86.621,110.283 84.508,109.064 								"/>
								<polyline fill="#087FBA" points="86.621,107.845 86.621,110.283 84.508,109.064 								"/>
								<polygon fill="#73E5FF" points="84.852,108.873 86.621,109.896 86.621,107.845 84.852,106.823 								"/>
								<polyline fill="#29CDFF" points="86.621,109.896 86.621,107.845 84.852,106.823 								"/>
								<polygon fill="#087FBA" points="84.731,107.708 84.731,108.003 86.621,109.094 86.621,108.797 								"/>
							</g>
						</g>
					</g>
				</g>
				<g>
					<g>
						<g>
							<g>
								<polygon fill="#075399" points="88.589,108.969 90.702,110.187 90.702,112.627 88.589,111.407 								"/>
								<polyline fill="#087FBA" points="90.702,110.187 90.702,112.627 88.589,111.407 								"/>
								<polygon fill="#73E5FF" points="88.933,111.216 90.702,112.238 90.702,110.187 88.933,109.167 								"/>
								<polyline fill="#29CDFF" points="90.702,112.238 90.702,110.187 88.933,109.167 								"/>
								<polygon fill="#087FBA" points="88.813,110.051 88.813,110.345 90.702,111.437 90.702,111.142 								"/>
							</g>
						</g>
					</g>
				</g>
				<g>
					<g>
						<g>
							<g>
								<polygon fill="#075399" points="92.671,111.312 94.784,112.533 94.784,114.972 92.671,113.751 								"/>
								<polyline fill="#087FBA" points="94.784,112.533 94.784,114.972 92.671,113.751 								"/>
								<polygon fill="#73E5FF" points="93.015,113.562 94.784,114.582 94.784,112.533 93.015,111.511 								"/>
								<polyline fill="#29CDFF" points="94.784,114.582 94.784,112.533 93.015,111.511 								"/>
								<polygon fill="#087FBA" points="92.895,112.396 92.895,112.689 94.784,113.781 94.784,113.486 								"/>
							</g>
						</g>
					</g>
				</g>
				<g>
					<g>
						<g>
							<g>
								<polygon fill="#075399" points="96.753,113.656 98.866,114.875 98.866,117.314 96.753,116.095 								"/>
								<polyline fill="#087FBA" points="98.866,114.875 98.866,117.314 96.753,116.095 								"/>
								<polygon fill="#73E5FF" points="97.097,115.904 98.866,116.926 98.866,114.875 97.097,113.853 								"/>
								<polyline fill="#29CDFF" points="98.866,116.926 98.866,114.875 97.097,113.853 								"/>
								<polygon fill="#087FBA" points="96.977,114.74 96.977,115.033 98.866,116.125 98.866,115.829 								"/>
							</g>
						</g>
					</g>
				</g>
			</g>
			<g>
				<g>
					<g>
						<g>
							<g>
								<polygon fill="#075399" points="68.181,101.939 70.294,103.158 70.294,105.597 68.181,104.376 								"/>
								<polyline fill="#087FBA" points="70.294,103.158 70.294,105.597 68.181,104.376 								"/>
								<polygon fill="#73E5FF" points="68.524,104.187 70.294,105.208 70.294,103.158 68.524,102.136 								"/>
								<polyline fill="#29CDFF" points="70.294,105.208 70.294,103.158 68.524,102.136 								"/>
								<polygon fill="#087FBA" points="68.405,103.023 68.405,103.316 70.294,104.408 70.294,104.111 								"/>
							</g>
						</g>
					</g>
				</g>
				<g>
					<g>
						<g>
							<g>
								<polygon fill="#075399" points="72.263,104.283 74.376,105.501 74.376,107.941 72.263,106.72 								"/>
								<polyline fill="#087FBA" points="74.376,105.501 74.376,107.941 72.263,106.72 								"/>
								<polygon fill="#73E5FF" points="72.606,106.531 74.376,107.552 74.376,105.501 72.606,104.48 								"/>
								<polyline fill="#29CDFF" points="74.376,107.552 74.376,105.501 72.606,104.48 								"/>
								<polygon fill="#087FBA" points="72.486,105.365 72.486,105.66 74.376,106.751 74.376,106.456 								"/>
							</g>
						</g>
					</g>
				</g>
				<g>
					<g>
						<g>
							<g>
								<polygon fill="#075399" points="76.345,106.626 78.457,107.845 78.457,110.285 76.345,109.065 								"/>
								<polyline fill="#087FBA" points="78.457,107.845 78.457,110.285 76.345,109.065 								"/>
								<polygon fill="#73E5FF" points="76.688,108.875 78.457,109.896 78.457,107.845 76.688,106.824 								"/>
								<polyline fill="#29CDFF" points="78.457,109.896 78.457,107.845 76.688,106.824 								"/>
								<polygon fill="#087FBA" points="76.568,107.708 76.568,108.003 78.457,109.094 78.457,108.798 								"/>
							</g>
						</g>
					</g>
				</g>
				<g>
					<g>
						<g>
							<g>
								<polygon fill="#075399" points="80.427,108.969 82.54,110.189 82.54,112.628 80.427,111.408 								"/>
								<polyline fill="#087FBA" points="82.54,110.189 82.54,112.628 80.427,111.408 								"/>
								<polygon fill="#73E5FF" points="80.771,111.218 82.54,112.24 82.54,110.189 80.771,109.167 								"/>
								<polyline fill="#29CDFF" points="82.54,112.24 82.54,110.189 80.771,109.167 								"/>
								<polygon fill="#087FBA" points="80.649,110.052 80.649,110.347 82.54,111.437 82.54,111.142 								"/>
							</g>
						</g>
					</g>
				</g>
				<g>
					<g>
						<g>
							<g>
								<polygon fill="#075399" points="84.508,111.314 86.621,112.533 86.621,114.972 84.508,113.751 								"/>
								<polyline fill="#087FBA" points="86.621,112.533 86.621,114.972 84.508,113.751 								"/>
								<polygon fill="#73E5FF" points="84.852,113.562 86.621,114.583 86.621,112.533 84.852,111.511 								"/>
								<polyline fill="#29CDFF" points="86.621,114.583 86.621,112.533 84.852,111.511 								"/>
								<polygon fill="#087FBA" points="84.731,112.396 84.731,112.691 86.621,113.783 86.621,113.486 								"/>
							</g>
						</g>
					</g>
				</g>
				<g>
					<g>
						<g>
							<g>
								<polygon fill="#075399" points="88.589,113.658 90.702,114.875 90.702,117.316 88.589,116.095 								"/>
								<polyline fill="#087FBA" points="90.702,114.875 90.702,117.316 88.589,116.095 								"/>
								<polygon fill="#73E5FF" points="88.933,115.904 90.702,116.926 90.702,114.875 88.933,113.856 								"/>
								<polyline fill="#29CDFF" points="90.702,116.926 90.702,114.875 88.933,113.856 								"/>
								<polygon fill="#087FBA" points="88.813,114.74 88.813,115.035 90.702,116.125 90.702,115.831 								"/>
							</g>
						</g>
					</g>
				</g>
				<g>
					<g>
						<g>
							<g>
								<polygon fill="#075399" points="92.671,116 94.784,117.22 94.784,119.66 92.671,118.439 								"/>
								<polyline fill="#087FBA" points="94.784,117.22 94.784,119.66 92.671,118.439 								"/>
								<polygon fill="#73E5FF" points="93.015,118.25 94.784,119.271 94.784,117.22 93.015,116.199 								"/>
								<polyline fill="#29CDFF" points="94.784,119.271 94.784,117.22 93.015,116.199 								"/>
								<polygon fill="#087FBA" points="92.895,117.083 92.895,117.376 94.784,118.469 94.784,118.173 								"/>
							</g>
						</g>
					</g>
				</g>
				<g>
					<g>
						<g>
							<g>
								<polygon fill="#075399" points="96.753,118.344 98.866,119.564 98.866,122.002 96.753,120.783 								"/>
								<polyline fill="#087FBA" points="98.866,119.564 98.866,122.002 96.753,120.783 								"/>
								<polygon fill="#73E5FF" points="97.097,120.592 98.866,121.615 98.866,119.564 97.097,118.542 								"/>
								<polyline fill="#29CDFF" points="98.866,121.615 98.866,119.564 97.097,118.542 								"/>
								<polygon fill="#087FBA" points="96.977,119.427 96.977,119.721 98.866,120.812 98.866,120.517 								"/>
							</g>
						</g>
					</g>
				</g>
			</g>
		</g>
		<g>
			<g>
				<g>
					<g>
						<g>
							<g>
								<polygon fill="#075399" points="121.438,92.56 119.325,93.781 119.325,96.218 121.438,95 								"/>
								<polyline fill="#087FBA" points="119.325,93.781 119.325,96.218 121.438,95 								"/>
								<polygon fill="#73E5FF" points="121.095,94.808 119.325,95.831 119.325,93.781 121.095,92.758 								"/>
								<polyline fill="#29CDFF" points="119.325,95.831 119.325,93.781 121.095,92.758 								"/>
								<polygon fill="#087FBA" points="121.215,93.644 121.215,93.939 119.325,95.03 119.325,94.733 								"/>
							</g>
						</g>
					</g>
				</g>
				<g>
					<g>
						<g>
							<g>
								<polygon fill="#075399" points="117.357,94.905 115.244,96.123 115.244,98.564 117.357,97.342 								"/>
								<polyline fill="#087FBA" points="115.244,96.123 115.244,98.564 117.357,97.342 								"/>
								<polygon fill="#73E5FF" points="117.014,97.152 115.244,98.173 115.244,96.123 117.014,95.103 								"/>
								<polyline fill="#29CDFF" points="115.244,98.173 115.244,96.123 117.014,95.103 								"/>
								<polygon fill="#087FBA" points="117.133,95.987 117.133,96.281 115.244,97.373 115.244,97.078 								"/>
							</g>
						</g>
					</g>
				</g>
				<g>
					<g>
						<g>
							<g>
								<polygon fill="#075399" points="113.274,97.248 111.162,98.468 111.162,100.908 113.274,99.687 								"/>
								<polyline fill="#087FBA" points="111.162,98.468 111.162,100.908 113.274,99.687 								"/>
								<polygon fill="#73E5FF" points="112.932,99.498 111.162,100.517 111.162,98.468 112.932,97.447 								"/>
								<polyline fill="#29CDFF" points="111.162,100.517 111.162,98.468 112.932,97.447 								"/>
								<polygon fill="#087FBA" points="113.052,98.332 113.052,98.625 111.162,99.716 111.162,99.421 								"/>
							</g>
						</g>
					</g>
				</g>
				<g>
					<g>
						<g>
							<g>
								<polygon fill="#075399" points="109.193,99.591 107.081,100.811 107.081,103.25 109.193,102.031 								"/>
								<polyline fill="#087FBA" points="107.081,100.811 107.081,103.25 109.193,102.031 								"/>
								<polygon fill="#73E5FF" points="108.85,101.839 107.081,102.862 107.081,100.811 108.85,99.789 								"/>
								<polyline fill="#29CDFF" points="107.081,102.862 107.081,100.811 108.85,99.789 								"/>
								<polygon fill="#087FBA" points="108.97,100.675 108.97,100.968 107.081,102.06 107.081,101.764 								"/>
							</g>
						</g>
					</g>
				</g>
			</g>
			<g>
				<g>
					<g>
						<g>
							<g>
								<polygon fill="#075399" points="121.438,97.249 119.325,98.468 119.325,100.908 121.438,99.687 								"/>
								<polyline fill="#087FBA" points="119.325,98.468 119.325,100.908 121.438,99.687 								"/>
								<polygon fill="#73E5FF" points="121.095,99.498 119.325,100.519 119.325,98.468 121.095,97.447 								"/>
								<polyline fill="#29CDFF" points="119.325,100.519 119.325,98.468 121.095,97.447 								"/>
								<polygon fill="#087FBA" points="121.215,98.332 121.215,98.626 119.325,99.718 119.325,99.421 								"/>
							</g>
						</g>
					</g>
				</g>
				<g>
					<g>
						<g>
							<g>
								<polygon fill="#075399" points="117.357,99.593 115.244,100.811 115.244,103.251 117.357,102.031 								"/>
								<polyline fill="#087FBA" points="115.244,100.811 115.244,103.251 117.357,102.031 								"/>
								<polygon fill="#73E5FF" points="117.014,101.839 115.244,102.862 115.244,100.811 117.014,99.792 								"/>
								<polyline fill="#29CDFF" points="115.244,102.862 115.244,100.811 117.014,99.792 								"/>
								<polygon fill="#087FBA" points="117.133,100.675 117.133,100.97 115.244,102.06 115.244,101.766 								"/>
							</g>
						</g>
					</g>
				</g>
				<g>
					<g>
						<g>
							<g>
								<polygon fill="#075399" points="113.274,101.935 111.162,103.156 111.162,105.595 113.274,104.375 								"/>
								<polyline fill="#087FBA" points="111.162,103.156 111.162,105.595 113.274,104.375 								"/>
								<polygon fill="#73E5FF" points="112.932,104.185 111.162,105.207 111.162,103.156 112.932,102.134 								"/>
								<polyline fill="#29CDFF" points="111.162,105.207 111.162,103.156 112.932,102.134 								"/>
								<polygon fill="#087FBA" points="113.052,103.019 113.052,103.312 111.162,104.405 111.162,104.109 								"/>
							</g>
						</g>
					</g>
				</g>
				<g>
					<g>
						<g>
							<g>
								<polygon fill="#075399" points="109.193,104.28 107.081,105.5 107.081,107.939 109.193,106.718 								"/>
								<polyline fill="#087FBA" points="107.081,105.5 107.081,107.939 109.193,106.718 								"/>
								<polygon fill="#73E5FF" points="108.85,106.528 107.081,107.55 107.081,105.5 108.85,104.478 								"/>
								<polyline fill="#29CDFF" points="107.081,107.55 107.081,105.5 108.85,104.478 								"/>
								<polygon fill="#087FBA" points="108.97,105.363 108.97,105.657 107.081,106.748 107.081,106.453 								"/>
							</g>
						</g>
					</g>
				</g>
			</g>
			<g>
				<g>
					<g>
						<g>
							<g>
								<polygon fill="#075399" points="121.438,101.937 119.325,103.156 119.325,105.595 121.438,104.376 								"/>
								<polyline fill="#087FBA" points="119.325,103.156 119.325,105.595 121.438,104.376 								"/>
								<polygon fill="#73E5FF" points="121.095,104.185 119.325,105.207 119.325,103.156 121.095,102.134 								"/>
								<polyline fill="#29CDFF" points="119.325,105.207 119.325,103.156 121.095,102.134 								"/>
								<polygon fill="#087FBA" points="121.215,103.021 121.215,103.315 119.325,104.406 119.325,104.109 								"/>
							</g>
						</g>
					</g>
				</g>
				<g>
					<g>
						<g>
							<g>
								<polygon fill="#075399" points="117.357,104.281 115.244,105.5 115.244,107.939 117.357,106.718 								"/>
								<polyline fill="#087FBA" points="115.244,105.5 115.244,107.939 117.357,106.718 								"/>
								<polygon fill="#73E5FF" points="117.014,106.528 115.244,107.55 115.244,105.5 117.014,104.48 								"/>
								<polyline fill="#29CDFF" points="115.244,107.55 115.244,105.5 117.014,104.48 								"/>
								<polygon fill="#087FBA" points="117.133,105.363 117.133,105.658 115.244,106.75 115.244,106.455 								"/>
							</g>
						</g>
					</g>
				</g>
				<g>
					<g>
						<g>
							<g>
								<polygon fill="#075399" points="113.274,106.625 111.162,107.845 111.162,110.283 113.274,109.064 								"/>
								<polyline fill="#087FBA" points="111.162,107.845 111.162,110.283 113.274,109.064 								"/>
								<polygon fill="#73E5FF" points="112.932,108.873 111.162,109.894 111.162,107.845 112.932,106.823 								"/>
								<polyline fill="#29CDFF" points="111.162,109.894 111.162,107.845 112.932,106.823 								"/>
								<polygon fill="#087FBA" points="113.052,107.707 113.052,108 111.162,109.093 111.162,108.797 								"/>
							</g>
						</g>
					</g>
				</g>
				<g>
					<g>
						<g>
							<g>
								<polygon fill="#075399" points="109.193,108.968 107.081,110.187 107.081,112.626 109.193,111.407 								"/>
								<polyline fill="#087FBA" points="107.081,110.187 107.081,112.626 109.193,111.407 								"/>
								<polygon fill="#73E5FF" points="108.85,111.216 107.081,112.238 107.081,110.187 108.85,109.166 								"/>
								<polyline fill="#29CDFF" points="107.081,112.238 107.081,110.187 108.85,109.166 								"/>
								<polygon fill="#087FBA" points="108.97,110.051 108.97,110.345 107.081,111.437 107.081,111.14 								"/>
							</g>
						</g>
					</g>
				</g>
			</g>
			<g>
				<g>
					<g>
						<g>
							<g>
								<polygon fill="#075399" points="121.438,106.625 119.325,107.845 119.325,110.283 121.438,109.064 								"/>
								<polyline fill="#087FBA" points="119.325,107.845 119.325,110.283 121.438,109.064 								"/>
								<polygon fill="#73E5FF" points="121.095,108.873 119.325,109.896 119.325,107.845 121.095,106.823 								"/>
								<polyline fill="#29CDFF" points="119.325,109.896 119.325,107.845 121.095,106.823 								"/>
								<polygon fill="#087FBA" points="121.215,107.708 121.215,108.003 119.325,109.094 119.325,108.797 								"/>
							</g>
						</g>
					</g>
				</g>
				<g>
					<g>
						<g>
							<g>
								<polygon fill="#075399" points="117.357,108.969 115.244,110.187 115.244,112.627 117.357,111.407 								"/>
								<polyline fill="#087FBA" points="115.244,110.187 115.244,112.627 117.357,111.407 								"/>
								<polygon fill="#73E5FF" points="117.014,111.216 115.244,112.238 115.244,110.187 117.014,109.167 								"/>
								<polyline fill="#29CDFF" points="115.244,112.238 115.244,110.187 117.014,109.167 								"/>
								<polygon fill="#087FBA" points="117.133,110.051 117.133,110.345 115.244,111.437 115.244,111.142 								"/>
							</g>
						</g>
					</g>
				</g>
				<g>
					<g>
						<g>
							<g>
								<polygon fill="#075399" points="113.274,111.312 111.162,112.533 111.162,114.972 113.274,113.751 								"/>
								<polyline fill="#087FBA" points="111.162,112.533 111.162,114.972 113.274,113.751 								"/>
								<polygon fill="#73E5FF" points="112.932,113.562 111.162,114.582 111.162,112.533 112.932,111.511 								"/>
								<polyline fill="#29CDFF" points="111.162,114.582 111.162,112.533 112.932,111.511 								"/>
								<polygon fill="#087FBA" points="113.052,112.396 113.052,112.689 111.162,113.781 111.162,113.486 								"/>
							</g>
						</g>
					</g>
				</g>
				<g>
					<g>
						<g>
							<g>
								<polygon fill="#075399" points="109.193,113.656 107.081,114.875 107.081,117.314 109.193,116.095 								"/>
								<polyline fill="#087FBA" points="107.081,114.875 107.081,117.314 109.193,116.095 								"/>
								<polygon fill="#73E5FF" points="108.85,115.904 107.081,116.926 107.081,114.875 108.85,113.853 								"/>
								<polyline fill="#29CDFF" points="107.081,116.926 107.081,114.875 108.85,113.853 								"/>
								<polygon fill="#087FBA" points="108.97,114.74 108.97,115.033 107.081,116.125 107.081,115.829 								"/>
							</g>
						</g>
					</g>
				</g>
			</g>
			<g>
				<g>
					<g>
						<g>
							<g>
								<polygon fill="#075399" points="121.438,111.314 119.325,112.533 119.325,114.972 121.438,113.751 								"/>
								<polyline fill="#087FBA" points="119.325,112.533 119.325,114.972 121.438,113.751 								"/>
								<polygon fill="#73E5FF" points="121.095,113.562 119.325,114.583 119.325,112.533 121.095,111.511 								"/>
								<polyline fill="#29CDFF" points="119.325,114.583 119.325,112.533 121.095,111.511 								"/>
								<polygon fill="#087FBA" points="121.215,112.396 121.215,112.691 119.325,113.783 119.325,113.486 								"/>
							</g>
						</g>
					</g>
				</g>
				<g>
					<g>
						<g>
							<g>
								<polygon fill="#075399" points="117.357,113.658 115.244,114.875 115.244,117.316 117.357,116.095 								"/>
								<polyline fill="#087FBA" points="115.244,114.875 115.244,117.316 117.357,116.095 								"/>
								<polygon fill="#73E5FF" points="117.014,115.904 115.244,116.926 115.244,114.875 117.014,113.856 								"/>
								<polyline fill="#29CDFF" points="115.244,116.926 115.244,114.875 117.014,113.856 								"/>
								<polygon fill="#087FBA" points="117.133,114.74 117.133,115.035 115.244,116.125 115.244,115.831 								"/>
							</g>
						</g>
					</g>
				</g>
				<g>
					<g>
						<g>
							<g>
								<polygon fill="#075399" points="113.274,116 111.162,117.22 111.162,119.66 113.274,118.439 								"/>
								<polyline fill="#087FBA" points="111.162,117.22 111.162,119.66 113.274,118.439 								"/>
								<polygon fill="#73E5FF" points="112.932,118.25 111.162,119.271 111.162,117.22 112.932,116.199 								"/>
								<polyline fill="#29CDFF" points="111.162,119.271 111.162,117.22 112.932,116.199 								"/>
								<polygon fill="#087FBA" points="113.052,117.083 113.052,117.376 111.162,118.469 111.162,118.173 								"/>
							</g>
						</g>
					</g>
				</g>
				<g>
					<g>
						<g>
							<g>
								<polygon fill="#075399" points="109.193,118.344 107.081,119.564 107.081,122.002 109.193,120.783 								"/>
								<polyline fill="#087FBA" points="107.081,119.564 107.081,122.002 109.193,120.783 								"/>
								<polygon fill="#73E5FF" points="108.85,120.592 107.081,121.615 107.081,119.564 108.85,118.542 								"/>
								<polyline fill="#29CDFF" points="107.081,121.615 107.081,119.564 108.85,118.542 								"/>
								<polygon fill="#087FBA" points="108.97,119.427 108.97,119.721 107.081,120.812 107.081,120.517 								"/>
							</g>
						</g>
					</g>
				</g>
			</g>
		</g>
	</g>
	<g>
		<g>
			<path fill="#518E8B" d="M45.058,96.394c0.919,0.531,1.67,1.831,1.67,2.891v6.765l-3.34-1.927v-6.766
				C43.388,96.296,44.141,95.863,45.058,96.394z"/>
			<path fill="#094572" d="M45.058,96.394c-0.412-0.238-0.786-0.273-1.079-0.152c-0.224,0.197-0.364,0.525-0.364,0.974v6.765
				l3.113,1.796v-6.491C46.728,98.225,45.977,96.925,45.058,96.394z"/>
			<path fill="#053A5B" d="M46.728,105.776v-6.491c0-1.06-0.751-2.359-1.67-2.891c-0.412-0.238-0.786-0.273-1.079-0.152
				c-0.224,0.197-0.364,0.525-0.364,0.974"/>
			<polygon fill="#518E8B" points="43.614,98.152 46.728,99.948 46.728,99.423 43.614,97.626 			"/>
			<polygon fill="#518E8B" points="44.953,104.751 45.163,104.873 45.163,98.656 44.953,98.656 			"/>
		</g>
		<g>
			<path fill="#518E8B" d="M48.896,98.608c0.918,0.53,1.669,1.831,1.669,2.891v6.765l-3.34-1.928V99.57
				C47.226,98.509,47.979,98.077,48.896,98.608z"/>
			<path fill="#094572" d="M48.896,98.608c-0.413-0.239-0.787-0.273-1.08-0.153c-0.224,0.197-0.364,0.525-0.364,0.975v6.764
				l3.113,1.797v-6.491C50.565,100.439,49.814,99.138,48.896,98.608z"/>
			<path fill="#053A5B" d="M50.565,107.99v-6.491c0-1.06-0.751-2.36-1.669-2.891c-0.413-0.239-0.787-0.273-1.08-0.153
				c-0.224,0.197-0.364,0.525-0.364,0.975"/>
			<polygon fill="#518E8B" points="47.452,100.365 50.565,102.162 50.565,101.636 47.452,99.839 			"/>
			<polygon fill="#518E8B" points="48.791,106.965 49.001,107.085 49.001,100.869 48.791,100.869 			"/>
		</g>
		<g>
			<path fill="#518E8B" d="M52.734,100.822c0.918,0.53,1.669,1.83,1.669,2.891v6.764l-3.34-1.926v-6.766
				C51.063,100.723,51.817,100.291,52.734,100.822z"/>
			<path fill="#094572" d="M52.734,100.822c-0.413-0.239-0.787-0.273-1.08-0.153c-0.224,0.197-0.364,0.525-0.364,0.974v6.765
				l3.113,1.796v-6.49C54.403,102.652,53.652,101.352,52.734,100.822z"/>
			<path fill="#053A5B" d="M54.403,110.203v-6.49c0-1.061-0.751-2.36-1.669-2.891c-0.413-0.239-0.787-0.273-1.08-0.153
				c-0.224,0.197-0.364,0.525-0.364,0.974"/>
			<polygon fill="#518E8B" points="51.29,102.579 54.403,104.375 54.403,103.85 51.29,102.052 			"/>
			<polygon fill="#518E8B" points="52.629,109.179 52.839,109.299 52.839,103.083 52.629,103.083 			"/>
		</g>
	</g>
	<g>
		<polyline fill="#325A7F" points="76.153,25.394 64.852,12.403 56.438,14.008 		"/>
		<polygon fill="#173B54" points="57.639,14.703 73.655,23.951 64.475,13.398 		"/>
		<polygon fill="#234763" points="57.639,14.703 73.655,23.951 66.256,15.447 		"/>
		<polygon fill="#234763" points="64.852,12.403 84.604,1 95.869,14.008 76.153,25.394 		"/>
		<polygon fill="#4A84A8" points="84.604,1 76.153,2.626 56.438,14.008 64.852,12.403 		"/>
		<g opacity="0.2">
			<path fill="#467DA3" d="M76.153,25.494c-0.034,0-0.069-0.018-0.088-0.05c-0.028-0.048-0.011-0.11,0.038-0.138l19.715-11.384
				c0.049-0.029,0.109-0.014,0.139,0.036c0.026,0.049,0.011,0.109-0.038,0.137L76.204,25.481
				C76.188,25.49,76.169,25.494,76.153,25.494z"/>
		</g>
		<g opacity="0.2">
			<path fill="#467DA3" d="M75.381,24.601c-0.035,0-0.069-0.02-0.088-0.051c-0.027-0.048-0.011-0.109,0.037-0.137l19.717-11.387
				c0.047-0.026,0.109-0.011,0.137,0.037c0.028,0.049,0.012,0.111-0.038,0.138L75.43,24.588
				C75.414,24.597,75.397,24.601,75.381,24.601z"/>
		</g>
		<g opacity="0.2">
			<path fill="#467DA3" d="M74.607,23.707c-0.035,0-0.069-0.018-0.088-0.049c-0.028-0.048-0.012-0.11,0.037-0.139l19.716-11.385
				c0.048-0.028,0.109-0.011,0.139,0.037c0.027,0.049,0.011,0.109-0.038,0.138L74.657,23.695
				C74.641,23.704,74.624,23.707,74.607,23.707z"/>
		</g>
		<g opacity="0.2">
			<path fill="#467DA3" d="M73.833,22.814c-0.033,0-0.068-0.018-0.087-0.05c-0.027-0.048-0.012-0.109,0.036-0.138L93.5,11.242
				c0.047-0.028,0.109-0.012,0.137,0.036c0.028,0.048,0.012,0.109-0.037,0.136L73.884,22.8
				C73.867,22.81,73.851,22.814,73.833,22.814z"/>
		</g>
		<g opacity="0.2">
			<path fill="#467DA3" d="M73.061,21.92c-0.034,0-0.069-0.019-0.088-0.05c-0.026-0.047-0.011-0.109,0.038-0.138l19.715-11.386
				c0.049-0.026,0.111-0.011,0.139,0.038c0.028,0.048,0.012,0.108-0.037,0.136L73.111,21.908
				C73.095,21.917,73.076,21.92,73.061,21.92z"/>
		</g>
		<g opacity="0.2">
			<path fill="#467DA3" d="M72.288,21.027c-0.036,0-0.069-0.018-0.088-0.049c-0.027-0.049-0.012-0.109,0.036-0.139L91.954,9.455
				C92,9.428,92.063,9.443,92.091,9.491c0.028,0.049,0.012,0.109-0.036,0.138L72.338,21.013
				C72.321,21.023,72.305,21.027,72.288,21.027z"/>
		</g>
		<g opacity="0.2">
			<path fill="#467DA3" d="M71.515,20.134c-0.035,0-0.069-0.018-0.088-0.051c-0.027-0.047-0.012-0.109,0.037-0.137L91.18,8.562
				c0.048-0.029,0.109-0.014,0.139,0.036c0.026,0.048,0.011,0.109-0.038,0.138L71.563,20.121
				C71.548,20.13,71.531,20.134,71.515,20.134z"/>
		</g>
		<g opacity="0.2">
			<path fill="#467DA3" d="M70.74,19.242c-0.034,0-0.068-0.02-0.087-0.051c-0.027-0.047-0.012-0.109,0.037-0.139L90.406,7.667
				c0.047-0.027,0.11-0.012,0.139,0.037c0.028,0.048,0.011,0.109-0.037,0.137L70.792,19.228
				C70.774,19.238,70.758,19.242,70.74,19.242z"/>
		</g>
		<g opacity="0.2">
			<path fill="#467DA3" d="M69.967,18.347c-0.033,0-0.067-0.018-0.087-0.049c-0.026-0.049-0.011-0.109,0.038-0.139L89.634,6.775
				c0.047-0.027,0.109-0.012,0.137,0.039c0.029,0.046,0.013,0.107-0.035,0.135L70.018,18.335
				C70.002,18.343,69.985,18.347,69.967,18.347z"/>
		</g>
		<g opacity="0.2">
			<path fill="#467DA3" d="M69.195,17.455c-0.036,0-0.069-0.018-0.089-0.051c-0.026-0.047-0.011-0.109,0.037-0.137L88.861,5.882
				c0.047-0.027,0.108-0.012,0.138,0.035c0.027,0.049,0.01,0.109-0.037,0.139L69.244,17.441
				C69.229,17.451,69.212,17.455,69.195,17.455z"/>
		</g>
		<g opacity="0.2">
			<path fill="#467DA3" d="M68.421,16.561c-0.033,0-0.068-0.017-0.087-0.05c-0.027-0.047-0.012-0.109,0.036-0.138L88.087,4.988
				c0.047-0.027,0.11-0.012,0.138,0.038c0.027,0.047,0.011,0.108-0.036,0.136L68.471,16.548
				C68.455,16.558,68.438,16.561,68.421,16.561z"/>
		</g>
		<g opacity="0.2">
			<path fill="#467DA3" d="M67.647,15.667c-0.034,0-0.066-0.018-0.087-0.049c-0.026-0.049-0.011-0.109,0.037-0.139L87.315,4.095
				c0.045-0.027,0.107-0.012,0.137,0.035c0.028,0.05,0.012,0.112-0.037,0.139L67.699,15.655
				C67.683,15.663,67.665,15.667,67.647,15.667z"/>
		</g>
		<g opacity="0.2">
			<path fill="#467DA3" d="M66.874,14.775c-0.033,0-0.066-0.018-0.087-0.049c-0.026-0.05-0.01-0.111,0.037-0.139L86.542,3.202
				c0.047-0.028,0.108-0.013,0.136,0.036c0.029,0.05,0.012,0.109-0.035,0.139L66.925,14.761
				C66.909,14.771,66.893,14.775,66.874,14.775z"/>
		</g>
		<g opacity="0.2">
			<path fill="#467DA3" d="M66.103,13.882c-0.036,0-0.069-0.018-0.088-0.052c-0.027-0.047-0.011-0.109,0.036-0.136L85.769,2.309
				c0.046-0.028,0.108-0.013,0.138,0.036c0.027,0.047,0.01,0.109-0.037,0.137L66.151,13.868
				C66.136,13.876,66.119,13.882,66.103,13.882z"/>
		</g>
		<g opacity="0.2">
			<path fill="#467DA3" d="M65.328,12.988c-0.034,0-0.068-0.019-0.087-0.049c-0.027-0.05-0.01-0.111,0.037-0.139L84.995,1.416
				c0.046-0.028,0.108-0.013,0.138,0.035c0.026,0.049,0.01,0.111-0.037,0.139L65.378,12.975
				C65.362,12.984,65.346,12.988,65.328,12.988z"/>
		</g>
	</g>
	<g>
		<polyline fill="#325A7F" points="59.592,34.941 48.29,21.95 39.876,23.555 		"/>
		<polygon fill="#173B54" points="41.077,24.25 57.095,33.498 47.913,22.945 		"/>
		<polygon fill="#234763" points="41.077,24.25 57.095,33.498 49.695,24.994 		"/>
		<polygon fill="#234763" points="48.29,21.95 68.042,10.547 79.308,23.555 59.592,34.941 		"/>
		<polyline fill="#173B54" points="59.592,34.941 48.29,21.95 68.042,10.547 		"/>
		<polygon fill="#4A84A8" points="68.042,10.547 59.592,12.173 39.876,23.555 48.29,21.95 		"/>
		<polyline fill="#40749B" points="39.876,23.555 48.29,21.95 68.042,10.547 		"/>
		<g opacity="0.2">
			<path fill="#467DA3" d="M59.592,35.041c-0.034,0-0.068-0.018-0.088-0.05c-0.027-0.048-0.011-0.11,0.038-0.138l19.716-11.384
				c0.048-0.029,0.109-0.014,0.138,0.036c0.027,0.049,0.012,0.109-0.038,0.137L59.643,35.028
				C59.627,35.037,59.607,35.041,59.592,35.041z"/>
		</g>
		<g opacity="0.2">
			<path fill="#467DA3" d="M58.819,34.148c-0.035,0-0.069-0.02-0.087-0.051c-0.028-0.048-0.012-0.109,0.036-0.137l19.717-11.387
				c0.047-0.026,0.109-0.01,0.138,0.037c0.027,0.049,0.011,0.111-0.038,0.138L58.868,34.135
				C58.853,34.144,58.836,34.148,58.819,34.148z"/>
		</g>
		<g opacity="0.2">
			<path fill="#467DA3" d="M58.046,33.253c-0.034,0-0.069-0.018-0.088-0.049c-0.028-0.048-0.012-0.11,0.038-0.139l19.715-11.385
				c0.048-0.028,0.109-0.01,0.139,0.037c0.027,0.049,0.011,0.109-0.038,0.138L58.096,33.242
				C58.079,33.25,58.063,33.253,58.046,33.253z"/>
		</g>
		<g opacity="0.2">
			<path fill="#467DA3" d="M57.271,32.361c-0.033,0-0.068-0.018-0.087-0.05c-0.026-0.048-0.011-0.109,0.037-0.138l19.718-11.385
				c0.047-0.028,0.108-0.012,0.136,0.037c0.029,0.047,0.012,0.108-0.037,0.135L57.323,32.347
				C57.307,32.357,57.289,32.361,57.271,32.361z"/>
		</g>
		<g opacity="0.2">
			<path fill="#467DA3" d="M56.5,31.468c-0.035,0-0.069-0.02-0.089-0.051c-0.026-0.047-0.011-0.109,0.038-0.137l19.716-11.387
				c0.048-0.026,0.11-0.011,0.138,0.039c0.028,0.047,0.012,0.107-0.036,0.135L56.55,31.455C56.533,31.464,56.516,31.468,56.5,31.468
				z"/>
		</g>
		<g opacity="0.2">
			<path fill="#467DA3" d="M55.727,30.574c-0.036,0-0.069-0.018-0.087-0.049c-0.028-0.049-0.013-0.109,0.035-0.139l19.718-11.385
				c0.046-0.026,0.108-0.012,0.138,0.036c0.027,0.05,0.011,0.11-0.037,0.138L55.776,30.56C55.76,30.57,55.743,30.574,55.727,30.574z
				"/>
		</g>
		<g opacity="0.2">
			<path fill="#467DA3" d="M54.953,29.681c-0.034,0-0.069-0.018-0.088-0.051c-0.027-0.047-0.012-0.109,0.038-0.137l19.715-11.385
				c0.048-0.028,0.109-0.013,0.139,0.037c0.026,0.046,0.011,0.108-0.038,0.137L55.002,29.667
				C54.986,29.677,54.97,29.681,54.953,29.681z"/>
		</g>
		<g opacity="0.2">
			<path fill="#467DA3" d="M54.179,28.789c-0.034,0-0.068-0.018-0.087-0.051c-0.026-0.047-0.011-0.109,0.037-0.139l19.716-11.385
				c0.047-0.025,0.111-0.011,0.139,0.037c0.028,0.048,0.012,0.109-0.037,0.137L54.23,28.775
				C54.214,28.785,54.196,28.789,54.179,28.789z"/>
		</g>
		<g opacity="0.2">
			<path fill="#467DA3" d="M53.405,27.894c-0.033,0-0.067-0.018-0.087-0.049c-0.026-0.049-0.011-0.109,0.038-0.139l19.716-11.385
				c0.047-0.026,0.109-0.012,0.137,0.038c0.029,0.047,0.013,0.108-0.035,0.136L53.456,27.882
				C53.44,27.89,53.424,27.894,53.405,27.894z"/>
		</g>
		<g opacity="0.2">
			<path fill="#467DA3" d="M52.634,27.001c-0.036,0-0.069-0.018-0.088-0.051c-0.027-0.047-0.012-0.109,0.036-0.137L72.3,15.429
				c0.047-0.027,0.108-0.012,0.138,0.036c0.027,0.048,0.01,0.109-0.037,0.138L52.683,26.988
				C52.667,26.998,52.65,27.001,52.634,27.001z"/>
		</g>
		<g opacity="0.2">
			<path fill="#467DA3" d="M51.859,26.108c-0.033,0-0.068-0.017-0.087-0.05c-0.027-0.047-0.012-0.109,0.037-0.138l19.716-11.386
				c0.047-0.027,0.11-0.012,0.138,0.038c0.027,0.047,0.011,0.109-0.036,0.136L51.909,26.095
				C51.894,26.105,51.877,26.108,51.859,26.108z"/>
		</g>
		<g opacity="0.2">
			<path fill="#467DA3" d="M51.086,25.214c-0.034,0-0.066-0.018-0.087-0.049c-0.026-0.049-0.011-0.109,0.037-0.139l19.718-11.385
				c0.046-0.027,0.108-0.012,0.137,0.035c0.028,0.05,0.012,0.112-0.036,0.139L51.138,25.202
				C51.121,25.209,51.104,25.214,51.086,25.214z"/>
		</g>
		<g opacity="0.2">
			<path fill="#467DA3" d="M50.313,24.322c-0.034,0-0.067-0.018-0.088-0.049c-0.026-0.05-0.01-0.111,0.037-0.139L69.98,12.749
				c0.047-0.028,0.108-0.013,0.136,0.036c0.029,0.05,0.012,0.109-0.035,0.139L50.363,24.308
				C50.348,24.317,50.331,24.322,50.313,24.322z"/>
		</g>
		<g opacity="0.2">
			<path fill="#467DA3" d="M49.541,23.429c-0.036,0-0.069-0.018-0.088-0.052c-0.027-0.046-0.011-0.108,0.036-0.136l19.718-11.386
				c0.046-0.028,0.108-0.013,0.138,0.036c0.027,0.047,0.01,0.109-0.037,0.137L49.59,23.415
				C49.574,23.423,49.558,23.429,49.541,23.429z"/>
		</g>
		<g opacity="0.2">
			<path fill="#467DA3" d="M48.767,22.535c-0.034,0-0.068-0.018-0.087-0.049c-0.026-0.05-0.01-0.111,0.037-0.139l19.718-11.385
				c0.045-0.027,0.107-0.012,0.137,0.035c0.027,0.049,0.01,0.111-0.037,0.139L48.817,22.522
				C48.802,22.531,48.784,22.535,48.767,22.535z"/>
		</g>
	</g>
</g>
</svg>
